<svg xmlns="http://www.w3.org/2000/svg" xmlns:xlink="http://www.w3.org/1999/xlink" width="500" zoomAndPan="magnify" viewBox="0 0 375 374.999991" height="500" preserveAspectRatio="xMidYMid meet" version="1.0"><defs><filter x="0%" y="0%" width="100%" height="100%" id="id1"><feColorMatrix values="0 0 0 0 1 0 0 0 0 1 0 0 0 0 1 0 0 0 1 0" color-interpolation-filters="sRGB"/></filter><g/><clipPath id="id2"><path d="M 61.925781 43.890625 L 343.175781 43.890625 L 343.175781 45 L 61.925781 45 Z M 61.925781 43.890625 " clip-rule="nonzero"/></clipPath><mask id="id3"><g filter="url(#id1)"><rect x="-37.5" width="450" fill="#000000" y="-37.499999" height="449.999989" fill-opacity="0.2471"/></g></mask><clipPath id="id4"><path d="M 0.925781 0.890625 L 282.175781 0.890625 L 282.175781 1.640625 L 0.925781 1.640625 Z M 0.925781 0.890625 " clip-rule="nonzero"/></clipPath><clipPath id="id5"><rect x="0" width="283" y="0" height="2"/></clipPath><clipPath id="id6"><path d="M 61.925781 113 L 343.175781 113 L 343.175781 116 L 61.925781 116 Z M 61.925781 113 " clip-rule="nonzero"/></clipPath><mask id="id7"><g filter="url(#id1)"><rect x="-37.5" width="450" fill="#000000" y="-37.499999" height="449.999989" fill-opacity="0.2471"/></g></mask><clipPath id="id8"><path d="M 0.925781 0.519531 L 282.175781 0.519531 L 282.175781 2 L 0.925781 2 Z M 0.925781 0.519531 " clip-rule="nonzero"/></clipPath><clipPath id="id9"><rect x="0" width="283" y="0" height="3"/></clipPath><clipPath id="id10"><path d="M 61.925781 184 L 343.175781 184 L 343.175781 186 L 61.925781 186 Z M 61.925781 184 " clip-rule="nonzero"/></clipPath><mask id="id11"><g filter="url(#id1)"><rect x="-37.5" width="450" fill="#000000" y="-37.499999" height="449.999989" fill-opacity="0.2471"/></g></mask><clipPath id="id12"><path d="M 0.925781 0.078125 L 282.175781 0.078125 L 282.175781 1 L 0.925781 1 Z M 0.925781 0.078125 " clip-rule="nonzero"/></clipPath><clipPath id="id13"><rect x="0" width="283" y="0" height="2"/></clipPath><clipPath id="id14"><path d="M 61.925781 253 L 343.175781 253 L 343.175781 256 L 61.925781 256 Z M 61.925781 253 " clip-rule="nonzero"/></clipPath><mask id="id15"><g filter="url(#id1)"><rect x="-37.5" width="450" fill="#000000" y="-37.499999" height="449.999989" fill-opacity="0.2471"/></g></mask><clipPath id="id16"><path d="M 0.925781 1 L 282.175781 1 L 282.175781 2.601562 L 0.925781 2.601562 Z M 0.925781 1 " clip-rule="nonzero"/></clipPath><clipPath id="id17"><rect x="0" width="283" y="0" height="3"/></clipPath><clipPath id="id18"><path d="M 61.925781 324 L 343.175781 324 L 343.175781 325.140625 L 61.925781 325.140625 Z M 61.925781 324 " clip-rule="nonzero"/></clipPath><mask id="id19"><g filter="url(#id1)"><rect x="-37.5" width="450" fill="#000000" y="-37.499999" height="449.999989" fill-opacity="0.6"/></g></mask><clipPath id="id20"><path d="M 0.925781 0.238281 L 282.175781 0.238281 L 282.175781 1.140625 L 0.925781 1.140625 Z M 0.925781 0.238281 " clip-rule="nonzero"/></clipPath><clipPath id="id21"><rect x="0" width="283" y="0" height="2"/></clipPath><clipPath id="id22"><path d="M 0 306.089844 L 59.25 306.089844 L 59.25 369.089844 L 0 369.089844 Z M 0 306.089844 " clip-rule="nonzero"/></clipPath></defs><rect x="-37.5" width="450" fill="#ffffff" y="-37.499999" height="449.999989" fill-opacity="1"/><rect x="-37.5" width="450" fill="#ffffff" y="-37.499999" height="449.999989" fill-opacity="1"/><rect x="-37.5" width="450" fill="#ffffff" y="-37.499999" height="449.999989" fill-opacity="1"/><rect x="-37.5" width="450" fill="#ffffff" y="-37.499999" height="449.999989" fill-opacity="1"/><g fill="#000000" fill-opacity="1"><g transform="translate(93.913417, 341.579978)"><g><path d="M 3.6875 0 L 3.15625 0 L 3.15625 -5.765625 C 3.15625 -6.285156 3.179688 -6.832031 3.234375 -7.40625 C 3.171875 -7.34375 3.109375 -7.285156 3.046875 -7.234375 C 2.992188 -7.191406 2.441406 -6.753906 1.390625 -5.921875 L 1.078125 -6.3125 L 3.234375 -7.921875 L 3.6875 -7.921875 Z M 3.6875 0 "/></g></g></g><g fill="#000000" fill-opacity="1"><g transform="translate(164.225912, 341.579978)"><g><path d="M 5.5625 0 L 0.609375 0 L 0.609375 -0.484375 L 2.71875 -2.671875 C 3.3125 -3.285156 3.726562 -3.753906 3.96875 -4.078125 C 4.207031 -4.410156 4.378906 -4.722656 4.484375 -5.015625 C 4.597656 -5.304688 4.65625 -5.617188 4.65625 -5.953125 C 4.65625 -6.421875 4.5 -6.800781 4.1875 -7.09375 C 3.882812 -7.394531 3.484375 -7.546875 2.984375 -7.546875 C 2.328125 -7.546875 1.695312 -7.304688 1.09375 -6.828125 L 0.796875 -7.203125 C 1.453125 -7.753906 2.1875 -8.03125 3 -8.03125 C 3.6875 -8.03125 4.226562 -7.84375 4.625 -7.46875 C 5.019531 -7.101562 5.21875 -6.597656 5.21875 -5.953125 C 5.21875 -5.429688 5.082031 -4.925781 4.8125 -4.4375 C 4.550781 -3.945312 4.066406 -3.34375 3.359375 -2.625 L 1.328125 -0.546875 L 1.328125 -0.515625 L 5.5625 -0.515625 Z M 5.5625 0 "/></g></g></g><g fill="#000000" fill-opacity="1"><g transform="translate(234.538407, 341.579978)"><g><path d="M 5.296875 -6.0625 C 5.296875 -5.5625 5.140625 -5.144531 4.828125 -4.8125 C 4.523438 -4.476562 4.113281 -4.265625 3.59375 -4.171875 L 3.59375 -4.140625 C 4.226562 -4.054688 4.710938 -3.851562 5.046875 -3.53125 C 5.378906 -3.207031 5.546875 -2.769531 5.546875 -2.21875 C 5.546875 -1.476562 5.289062 -0.90625 4.78125 -0.5 C 4.28125 -0.09375 3.554688 0.109375 2.609375 0.109375 C 1.804688 0.109375 1.109375 -0.0390625 0.515625 -0.34375 L 0.515625 -0.875 C 0.816406 -0.71875 1.15625 -0.59375 1.53125 -0.5 C 1.90625 -0.414062 2.257812 -0.375 2.59375 -0.375 C 3.394531 -0.375 3.992188 -0.535156 4.390625 -0.859375 C 4.796875 -1.179688 5 -1.632812 5 -2.21875 C 5 -2.738281 4.789062 -3.140625 4.375 -3.421875 C 3.96875 -3.703125 3.367188 -3.84375 2.578125 -3.84375 L 1.71875 -3.84375 L 1.71875 -4.375 L 2.578125 -4.375 C 3.234375 -4.375 3.753906 -4.53125 4.140625 -4.84375 C 4.523438 -5.15625 4.71875 -5.578125 4.71875 -6.109375 C 4.71875 -6.546875 4.5625 -6.894531 4.25 -7.15625 C 3.9375 -7.425781 3.53125 -7.5625 3.03125 -7.5625 C 2.632812 -7.5625 2.273438 -7.503906 1.953125 -7.390625 C 1.628906 -7.285156 1.265625 -7.101562 0.859375 -6.84375 L 0.59375 -7.203125 C 0.894531 -7.453125 1.257812 -7.648438 1.6875 -7.796875 C 2.125 -7.953125 2.566406 -8.03125 3.015625 -8.03125 C 3.742188 -8.03125 4.304688 -7.859375 4.703125 -7.515625 C 5.097656 -7.171875 5.296875 -6.6875 5.296875 -6.0625 Z M 5.296875 -6.0625 "/></g></g></g><g fill="#000000" fill-opacity="1"><g transform="translate(304.850903, 341.579978)"><g><path d="M 6.1875 -2.015625 L 4.8125 -2.015625 L 4.8125 0 L 4.3125 0 L 4.3125 -2.015625 L 0.234375 -2.015625 L 0.234375 -2.390625 L 4.15625 -7.96875 L 4.8125 -7.96875 L 4.8125 -2.484375 L 6.1875 -2.484375 Z M 4.3125 -2.484375 L 4.3125 -4.75 C 4.3125 -5.84375 4.332031 -6.757812 4.375 -7.5 L 4.34375 -7.5 C 4.269531 -7.363281 4.046875 -7.023438 3.671875 -6.484375 L 0.875 -2.484375 Z M 4.3125 -2.484375 "/></g></g></g><g clip-path="url(#id2)"><g mask="url(#id3)"><g transform="matrix(1, 0, 0, 1, 61, 43)"><g clip-path="url(#id5)"><g clip-path="url(#id4)"><path fill="#000000" d="M 0.925781 0.515625 L 282.175781 0.515625 L 282.175781 1.265625 L 0.925781 1.265625 Z M 0.925781 0.515625 " fill-opacity="1" fill-rule="nonzero"/></g></g></g></g></g><g clip-path="url(#id6)"><g mask="url(#id7)"><g transform="matrix(1, 0, 0, 1, 61, 113)"><g clip-path="url(#id9)"><g clip-path="url(#id8)"><path fill="#000000" d="M 0.925781 0.828125 L 282.175781 0.828125 L 282.175781 1.578125 L 0.925781 1.578125 Z M 0.925781 0.828125 " fill-opacity="1" fill-rule="nonzero"/></g></g></g></g></g><g clip-path="url(#id10)"><g mask="url(#id11)"><g transform="matrix(1, 0, 0, 1, 61, 184)"><g clip-path="url(#id13)"><g clip-path="url(#id12)"><path fill="#000000" d="M 0.925781 0.140625 L 282.175781 0.140625 L 282.175781 0.890625 L 0.925781 0.890625 Z M 0.925781 0.140625 " fill-opacity="1" fill-rule="nonzero"/></g></g></g></g></g><g clip-path="url(#id14)"><g mask="url(#id15)"><g transform="matrix(1, 0, 0, 1, 61, 253)"><g clip-path="url(#id17)"><g clip-path="url(#id16)"><path fill="#000000" d="M 0.925781 1.453125 L 282.175781 1.453125 L 282.175781 2.203125 L 0.925781 2.203125 Z M 0.925781 1.453125 " fill-opacity="1" fill-rule="nonzero"/></g></g></g></g></g><g clip-path="url(#id18)"><g mask="url(#id19)"><g transform="matrix(1, 0, 0, 1, 61, 324)"><g clip-path="url(#id21)"><g clip-path="url(#id20)"><path fill="#000000" d="M 0.925781 0.765625 L 282.175781 0.765625 L 282.175781 1.515625 L 0.925781 1.515625 Z M 0.925781 0.765625 " fill-opacity="1" fill-rule="nonzero"/></g></g></g></g></g><g fill="#000000" fill-opacity="1"><g transform="translate(4.398907, 48.389997)"><g><path d="M 3.6875 0 L 3.15625 0 L 3.15625 -5.765625 C 3.15625 -6.285156 3.179688 -6.832031 3.234375 -7.40625 C 3.171875 -7.34375 3.109375 -7.285156 3.046875 -7.234375 C 2.992188 -7.191406 2.441406 -6.753906 1.390625 -5.921875 L 1.078125 -6.3125 L 3.234375 -7.921875 L 3.6875 -7.921875 Z M 3.6875 0 "/></g></g></g><g fill="#000000" fill-opacity="1"><g transform="translate(10.733463, 48.389997)"><g><path d="M 1.59375 -1.296875 L 1.65625 -1.171875 C 1.382812 -0.210938 1.070312 0.65625 0.71875 1.4375 L 0.375 1.4375 C 0.644531 0.4375 0.84375 -0.472656 0.96875 -1.296875 Z M 1.59375 -1.296875 "/></g></g></g><g fill="#000000" fill-opacity="1"><g transform="translate(13.117725, 48.389997)"><g><path d="M 5.71875 -3.984375 C 5.71875 -2.585938 5.503906 -1.554688 5.078125 -0.890625 C 4.648438 -0.222656 4.007812 0.109375 3.15625 0.109375 C 2.320312 0.109375 1.691406 -0.234375 1.265625 -0.921875 C 0.835938 -1.609375 0.625 -2.628906 0.625 -3.984375 C 0.625 -5.359375 0.832031 -6.378906 1.25 -7.046875 C 1.664062 -7.710938 2.300781 -8.046875 3.15625 -8.046875 C 3.988281 -8.046875 4.625 -7.703125 5.0625 -7.015625 C 5.5 -6.328125 5.71875 -5.316406 5.71875 -3.984375 Z M 1.203125 -3.984375 C 1.203125 -2.753906 1.363281 -1.84375 1.6875 -1.25 C 2.007812 -0.664062 2.5 -0.375 3.15625 -0.375 C 3.832031 -0.375 4.328125 -0.675781 4.640625 -1.28125 C 4.953125 -1.894531 5.109375 -2.796875 5.109375 -3.984375 C 5.109375 -5.148438 4.953125 -6.035156 4.640625 -6.640625 C 4.328125 -7.253906 3.832031 -7.5625 3.15625 -7.5625 C 2.46875 -7.5625 1.96875 -7.253906 1.65625 -6.640625 C 1.351562 -6.035156 1.203125 -5.148438 1.203125 -3.984375 Z M 1.203125 -3.984375 "/></g></g></g><g fill="#000000" fill-opacity="1"><g transform="translate(19.452281, 48.389997)"><g><path d="M 5.71875 -3.984375 C 5.71875 -2.585938 5.503906 -1.554688 5.078125 -0.890625 C 4.648438 -0.222656 4.007812 0.109375 3.15625 0.109375 C 2.320312 0.109375 1.691406 -0.234375 1.265625 -0.921875 C 0.835938 -1.609375 0.625 -2.628906 0.625 -3.984375 C 0.625 -5.359375 0.832031 -6.378906 1.25 -7.046875 C 1.664062 -7.710938 2.300781 -8.046875 3.15625 -8.046875 C 3.988281 -8.046875 4.625 -7.703125 5.0625 -7.015625 C 5.5 -6.328125 5.71875 -5.316406 5.71875 -3.984375 Z M 1.203125 -3.984375 C 1.203125 -2.753906 1.363281 -1.84375 1.6875 -1.25 C 2.007812 -0.664062 2.5 -0.375 3.15625 -0.375 C 3.832031 -0.375 4.328125 -0.675781 4.640625 -1.28125 C 4.953125 -1.894531 5.109375 -2.796875 5.109375 -3.984375 C 5.109375 -5.148438 4.953125 -6.035156 4.640625 -6.640625 C 4.328125 -7.253906 3.832031 -7.5625 3.15625 -7.5625 C 2.46875 -7.5625 1.96875 -7.253906 1.65625 -6.640625 C 1.351562 -6.035156 1.203125 -5.148438 1.203125 -3.984375 Z M 1.203125 -3.984375 "/></g></g></g><g fill="#000000" fill-opacity="1"><g transform="translate(25.786837, 48.389997)"><g><path d="M 5.71875 -3.984375 C 5.71875 -2.585938 5.503906 -1.554688 5.078125 -0.890625 C 4.648438 -0.222656 4.007812 0.109375 3.15625 0.109375 C 2.320312 0.109375 1.691406 -0.234375 1.265625 -0.921875 C 0.835938 -1.609375 0.625 -2.628906 0.625 -3.984375 C 0.625 -5.359375 0.832031 -6.378906 1.25 -7.046875 C 1.664062 -7.710938 2.300781 -8.046875 3.15625 -8.046875 C 3.988281 -8.046875 4.625 -7.703125 5.0625 -7.015625 C 5.5 -6.328125 5.71875 -5.316406 5.71875 -3.984375 Z M 1.203125 -3.984375 C 1.203125 -2.753906 1.363281 -1.84375 1.6875 -1.25 C 2.007812 -0.664062 2.5 -0.375 3.15625 -0.375 C 3.832031 -0.375 4.328125 -0.675781 4.640625 -1.28125 C 4.953125 -1.894531 5.109375 -2.796875 5.109375 -3.984375 C 5.109375 -5.148438 4.953125 -6.035156 4.640625 -6.640625 C 4.328125 -7.253906 3.832031 -7.5625 3.15625 -7.5625 C 2.46875 -7.5625 1.96875 -7.253906 1.65625 -6.640625 C 1.351562 -6.035156 1.203125 -5.148438 1.203125 -3.984375 Z M 1.203125 -3.984375 "/></g></g></g><g fill="#000000" fill-opacity="1"><g transform="translate(32.121393, 48.389997)"><g><path d="M 1.59375 -1.296875 L 1.65625 -1.171875 C 1.382812 -0.210938 1.070312 0.65625 0.71875 1.4375 L 0.375 1.4375 C 0.644531 0.4375 0.84375 -0.472656 0.96875 -1.296875 Z M 1.59375 -1.296875 "/></g></g></g><g fill="#000000" fill-opacity="1"><g transform="translate(34.505655, 48.389997)"><g><path d="M 5.71875 -3.984375 C 5.71875 -2.585938 5.503906 -1.554688 5.078125 -0.890625 C 4.648438 -0.222656 4.007812 0.109375 3.15625 0.109375 C 2.320312 0.109375 1.691406 -0.234375 1.265625 -0.921875 C 0.835938 -1.609375 0.625 -2.628906 0.625 -3.984375 C 0.625 -5.359375 0.832031 -6.378906 1.25 -7.046875 C 1.664062 -7.710938 2.300781 -8.046875 3.15625 -8.046875 C 3.988281 -8.046875 4.625 -7.703125 5.0625 -7.015625 C 5.5 -6.328125 5.71875 -5.316406 5.71875 -3.984375 Z M 1.203125 -3.984375 C 1.203125 -2.753906 1.363281 -1.84375 1.6875 -1.25 C 2.007812 -0.664062 2.5 -0.375 3.15625 -0.375 C 3.832031 -0.375 4.328125 -0.675781 4.640625 -1.28125 C 4.953125 -1.894531 5.109375 -2.796875 5.109375 -3.984375 C 5.109375 -5.148438 4.953125 -6.035156 4.640625 -6.640625 C 4.328125 -7.253906 3.832031 -7.5625 3.15625 -7.5625 C 2.46875 -7.5625 1.96875 -7.253906 1.65625 -6.640625 C 1.351562 -6.035156 1.203125 -5.148438 1.203125 -3.984375 Z M 1.203125 -3.984375 "/></g></g></g><g fill="#000000" fill-opacity="1"><g transform="translate(40.840211, 48.389997)"><g><path d="M 5.71875 -3.984375 C 5.71875 -2.585938 5.503906 -1.554688 5.078125 -0.890625 C 4.648438 -0.222656 4.007812 0.109375 3.15625 0.109375 C 2.320312 0.109375 1.691406 -0.234375 1.265625 -0.921875 C 0.835938 -1.609375 0.625 -2.628906 0.625 -3.984375 C 0.625 -5.359375 0.832031 -6.378906 1.25 -7.046875 C 1.664062 -7.710938 2.300781 -8.046875 3.15625 -8.046875 C 3.988281 -8.046875 4.625 -7.703125 5.0625 -7.015625 C 5.5 -6.328125 5.71875 -5.316406 5.71875 -3.984375 Z M 1.203125 -3.984375 C 1.203125 -2.753906 1.363281 -1.84375 1.6875 -1.25 C 2.007812 -0.664062 2.5 -0.375 3.15625 -0.375 C 3.832031 -0.375 4.328125 -0.675781 4.640625 -1.28125 C 4.953125 -1.894531 5.109375 -2.796875 5.109375 -3.984375 C 5.109375 -5.148438 4.953125 -6.035156 4.640625 -6.640625 C 4.328125 -7.253906 3.832031 -7.5625 3.15625 -7.5625 C 2.46875 -7.5625 1.96875 -7.253906 1.65625 -6.640625 C 1.351562 -6.035156 1.203125 -5.148438 1.203125 -3.984375 Z M 1.203125 -3.984375 "/></g></g></g><g fill="#000000" fill-opacity="1"><g transform="translate(47.174767, 48.389997)"><g><path d="M 5.71875 -3.984375 C 5.71875 -2.585938 5.503906 -1.554688 5.078125 -0.890625 C 4.648438 -0.222656 4.007812 0.109375 3.15625 0.109375 C 2.320312 0.109375 1.691406 -0.234375 1.265625 -0.921875 C 0.835938 -1.609375 0.625 -2.628906 0.625 -3.984375 C 0.625 -5.359375 0.832031 -6.378906 1.25 -7.046875 C 1.664062 -7.710938 2.300781 -8.046875 3.15625 -8.046875 C 3.988281 -8.046875 4.625 -7.703125 5.0625 -7.015625 C 5.5 -6.328125 5.71875 -5.316406 5.71875 -3.984375 Z M 1.203125 -3.984375 C 1.203125 -2.753906 1.363281 -1.84375 1.6875 -1.25 C 2.007812 -0.664062 2.5 -0.375 3.15625 -0.375 C 3.832031 -0.375 4.328125 -0.675781 4.640625 -1.28125 C 4.953125 -1.894531 5.109375 -2.796875 5.109375 -3.984375 C 5.109375 -5.148438 4.953125 -6.035156 4.640625 -6.640625 C 4.328125 -7.253906 3.832031 -7.5625 3.15625 -7.5625 C 2.46875 -7.5625 1.96875 -7.253906 1.65625 -6.640625 C 1.351562 -6.035156 1.203125 -5.148438 1.203125 -3.984375 Z M 1.203125 -3.984375 "/></g></g></g><g fill="#000000" fill-opacity="1"><g transform="translate(53.500466, 48.389997)"><g/></g></g><g fill="#000000" fill-opacity="1"><g transform="translate(13.111634, 118.702492)"><g><path d="M 1.8125 0 L 5.0625 -7.40625 L 0.59375 -7.40625 L 0.59375 -7.921875 L 5.71875 -7.921875 L 5.71875 -7.53125 L 2.4375 0 Z M 1.8125 0 "/></g></g></g><g fill="#000000" fill-opacity="1"><g transform="translate(19.44619, 118.702492)"><g><path d="M 2.90625 -4.765625 C 3.75 -4.765625 4.414062 -4.554688 4.90625 -4.140625 C 5.394531 -3.734375 5.640625 -3.175781 5.640625 -2.46875 C 5.640625 -1.65625 5.382812 -1.019531 4.875 -0.5625 C 4.363281 -0.113281 3.664062 0.109375 2.78125 0.109375 C 2.382812 0.109375 2.007812 0.0703125 1.65625 0 C 1.300781 -0.0820312 1.007812 -0.195312 0.78125 -0.34375 L 0.78125 -0.90625 C 1.164062 -0.695312 1.507812 -0.554688 1.8125 -0.484375 C 2.113281 -0.410156 2.4375 -0.375 2.78125 -0.375 C 3.476562 -0.375 4.035156 -0.554688 4.453125 -0.921875 C 4.867188 -1.285156 5.078125 -1.78125 5.078125 -2.40625 C 5.078125 -2.988281 4.875 -3.445312 4.46875 -3.78125 C 4.0625 -4.125 3.507812 -4.296875 2.8125 -4.296875 C 2.34375 -4.296875 1.847656 -4.222656 1.328125 -4.078125 L 1 -4.296875 L 1.328125 -7.921875 L 5.140625 -7.921875 L 5.140625 -7.40625 L 1.828125 -7.40625 L 1.59375 -4.609375 C 2.15625 -4.710938 2.59375 -4.765625 2.90625 -4.765625 Z M 2.90625 -4.765625 "/></g></g></g><g fill="#000000" fill-opacity="1"><g transform="translate(25.780747, 118.702492)"><g><path d="M 5.71875 -3.984375 C 5.71875 -2.585938 5.503906 -1.554688 5.078125 -0.890625 C 4.648438 -0.222656 4.007812 0.109375 3.15625 0.109375 C 2.320312 0.109375 1.691406 -0.234375 1.265625 -0.921875 C 0.835938 -1.609375 0.625 -2.628906 0.625 -3.984375 C 0.625 -5.359375 0.832031 -6.378906 1.25 -7.046875 C 1.664062 -7.710938 2.300781 -8.046875 3.15625 -8.046875 C 3.988281 -8.046875 4.625 -7.703125 5.0625 -7.015625 C 5.5 -6.328125 5.71875 -5.316406 5.71875 -3.984375 Z M 1.203125 -3.984375 C 1.203125 -2.753906 1.363281 -1.84375 1.6875 -1.25 C 2.007812 -0.664062 2.5 -0.375 3.15625 -0.375 C 3.832031 -0.375 4.328125 -0.675781 4.640625 -1.28125 C 4.953125 -1.894531 5.109375 -2.796875 5.109375 -3.984375 C 5.109375 -5.148438 4.953125 -6.035156 4.640625 -6.640625 C 4.328125 -7.253906 3.832031 -7.5625 3.15625 -7.5625 C 2.46875 -7.5625 1.96875 -7.253906 1.65625 -6.640625 C 1.351562 -6.035156 1.203125 -5.148438 1.203125 -3.984375 Z M 1.203125 -3.984375 "/></g></g></g><g fill="#000000" fill-opacity="1"><g transform="translate(32.115303, 118.702492)"><g><path d="M 1.59375 -1.296875 L 1.65625 -1.171875 C 1.382812 -0.210938 1.070312 0.65625 0.71875 1.4375 L 0.375 1.4375 C 0.644531 0.4375 0.84375 -0.472656 0.96875 -1.296875 Z M 1.59375 -1.296875 "/></g></g></g><g fill="#000000" fill-opacity="1"><g transform="translate(34.499565, 118.702492)"><g><path d="M 5.71875 -3.984375 C 5.71875 -2.585938 5.503906 -1.554688 5.078125 -0.890625 C 4.648438 -0.222656 4.007812 0.109375 3.15625 0.109375 C 2.320312 0.109375 1.691406 -0.234375 1.265625 -0.921875 C 0.835938 -1.609375 0.625 -2.628906 0.625 -3.984375 C 0.625 -5.359375 0.832031 -6.378906 1.25 -7.046875 C 1.664062 -7.710938 2.300781 -8.046875 3.15625 -8.046875 C 3.988281 -8.046875 4.625 -7.703125 5.0625 -7.015625 C 5.5 -6.328125 5.71875 -5.316406 5.71875 -3.984375 Z M 1.203125 -3.984375 C 1.203125 -2.753906 1.363281 -1.84375 1.6875 -1.25 C 2.007812 -0.664062 2.5 -0.375 3.15625 -0.375 C 3.832031 -0.375 4.328125 -0.675781 4.640625 -1.28125 C 4.953125 -1.894531 5.109375 -2.796875 5.109375 -3.984375 C 5.109375 -5.148438 4.953125 -6.035156 4.640625 -6.640625 C 4.328125 -7.253906 3.832031 -7.5625 3.15625 -7.5625 C 2.46875 -7.5625 1.96875 -7.253906 1.65625 -6.640625 C 1.351562 -6.035156 1.203125 -5.148438 1.203125 -3.984375 Z M 1.203125 -3.984375 "/></g></g></g><g fill="#000000" fill-opacity="1"><g transform="translate(40.834121, 118.702492)"><g><path d="M 5.71875 -3.984375 C 5.71875 -2.585938 5.503906 -1.554688 5.078125 -0.890625 C 4.648438 -0.222656 4.007812 0.109375 3.15625 0.109375 C 2.320312 0.109375 1.691406 -0.234375 1.265625 -0.921875 C 0.835938 -1.609375 0.625 -2.628906 0.625 -3.984375 C 0.625 -5.359375 0.832031 -6.378906 1.25 -7.046875 C 1.664062 -7.710938 2.300781 -8.046875 3.15625 -8.046875 C 3.988281 -8.046875 4.625 -7.703125 5.0625 -7.015625 C 5.5 -6.328125 5.71875 -5.316406 5.71875 -3.984375 Z M 1.203125 -3.984375 C 1.203125 -2.753906 1.363281 -1.84375 1.6875 -1.25 C 2.007812 -0.664062 2.5 -0.375 3.15625 -0.375 C 3.832031 -0.375 4.328125 -0.675781 4.640625 -1.28125 C 4.953125 -1.894531 5.109375 -2.796875 5.109375 -3.984375 C 5.109375 -5.148438 4.953125 -6.035156 4.640625 -6.640625 C 4.328125 -7.253906 3.832031 -7.5625 3.15625 -7.5625 C 2.46875 -7.5625 1.96875 -7.253906 1.65625 -6.640625 C 1.351562 -6.035156 1.203125 -5.148438 1.203125 -3.984375 Z M 1.203125 -3.984375 "/></g></g></g><g fill="#000000" fill-opacity="1"><g transform="translate(47.168677, 118.702492)"><g><path d="M 5.71875 -3.984375 C 5.71875 -2.585938 5.503906 -1.554688 5.078125 -0.890625 C 4.648438 -0.222656 4.007812 0.109375 3.15625 0.109375 C 2.320312 0.109375 1.691406 -0.234375 1.265625 -0.921875 C 0.835938 -1.609375 0.625 -2.628906 0.625 -3.984375 C 0.625 -5.359375 0.832031 -6.378906 1.25 -7.046875 C 1.664062 -7.710938 2.300781 -8.046875 3.15625 -8.046875 C 3.988281 -8.046875 4.625 -7.703125 5.0625 -7.015625 C 5.5 -6.328125 5.71875 -5.316406 5.71875 -3.984375 Z M 1.203125 -3.984375 C 1.203125 -2.753906 1.363281 -1.84375 1.6875 -1.25 C 2.007812 -0.664062 2.5 -0.375 3.15625 -0.375 C 3.832031 -0.375 4.328125 -0.675781 4.640625 -1.28125 C 4.953125 -1.894531 5.109375 -2.796875 5.109375 -3.984375 C 5.109375 -5.148438 4.953125 -6.035156 4.640625 -6.640625 C 4.328125 -7.253906 3.832031 -7.5625 3.15625 -7.5625 C 2.46875 -7.5625 1.96875 -7.253906 1.65625 -6.640625 C 1.351562 -6.035156 1.203125 -5.148438 1.203125 -3.984375 Z M 1.203125 -3.984375 "/></g></g></g><g fill="#000000" fill-opacity="1"><g transform="translate(53.494444, 118.702492)"><g/></g></g><g fill="#000000" fill-opacity="1"><g transform="translate(13.111634, 189.014988)"><g><path d="M 2.90625 -4.765625 C 3.75 -4.765625 4.414062 -4.554688 4.90625 -4.140625 C 5.394531 -3.734375 5.640625 -3.175781 5.640625 -2.46875 C 5.640625 -1.65625 5.382812 -1.019531 4.875 -0.5625 C 4.363281 -0.113281 3.664062 0.109375 2.78125 0.109375 C 2.382812 0.109375 2.007812 0.0703125 1.65625 0 C 1.300781 -0.0820312 1.007812 -0.195312 0.78125 -0.34375 L 0.78125 -0.90625 C 1.164062 -0.695312 1.507812 -0.554688 1.8125 -0.484375 C 2.113281 -0.410156 2.4375 -0.375 2.78125 -0.375 C 3.476562 -0.375 4.035156 -0.554688 4.453125 -0.921875 C 4.867188 -1.285156 5.078125 -1.78125 5.078125 -2.40625 C 5.078125 -2.988281 4.875 -3.445312 4.46875 -3.78125 C 4.0625 -4.125 3.507812 -4.296875 2.8125 -4.296875 C 2.34375 -4.296875 1.847656 -4.222656 1.328125 -4.078125 L 1 -4.296875 L 1.328125 -7.921875 L 5.140625 -7.921875 L 5.140625 -7.40625 L 1.828125 -7.40625 L 1.59375 -4.609375 C 2.15625 -4.710938 2.59375 -4.765625 2.90625 -4.765625 Z M 2.90625 -4.765625 "/></g></g></g><g fill="#000000" fill-opacity="1"><g transform="translate(19.44619, 189.014988)"><g><path d="M 5.71875 -3.984375 C 5.71875 -2.585938 5.503906 -1.554688 5.078125 -0.890625 C 4.648438 -0.222656 4.007812 0.109375 3.15625 0.109375 C 2.320312 0.109375 1.691406 -0.234375 1.265625 -0.921875 C 0.835938 -1.609375 0.625 -2.628906 0.625 -3.984375 C 0.625 -5.359375 0.832031 -6.378906 1.25 -7.046875 C 1.664062 -7.710938 2.300781 -8.046875 3.15625 -8.046875 C 3.988281 -8.046875 4.625 -7.703125 5.0625 -7.015625 C 5.5 -6.328125 5.71875 -5.316406 5.71875 -3.984375 Z M 1.203125 -3.984375 C 1.203125 -2.753906 1.363281 -1.84375 1.6875 -1.25 C 2.007812 -0.664062 2.5 -0.375 3.15625 -0.375 C 3.832031 -0.375 4.328125 -0.675781 4.640625 -1.28125 C 4.953125 -1.894531 5.109375 -2.796875 5.109375 -3.984375 C 5.109375 -5.148438 4.953125 -6.035156 4.640625 -6.640625 C 4.328125 -7.253906 3.832031 -7.5625 3.15625 -7.5625 C 2.46875 -7.5625 1.96875 -7.253906 1.65625 -6.640625 C 1.351562 -6.035156 1.203125 -5.148438 1.203125 -3.984375 Z M 1.203125 -3.984375 "/></g></g></g><g fill="#000000" fill-opacity="1"><g transform="translate(25.780747, 189.014988)"><g><path d="M 5.71875 -3.984375 C 5.71875 -2.585938 5.503906 -1.554688 5.078125 -0.890625 C 4.648438 -0.222656 4.007812 0.109375 3.15625 0.109375 C 2.320312 0.109375 1.691406 -0.234375 1.265625 -0.921875 C 0.835938 -1.609375 0.625 -2.628906 0.625 -3.984375 C 0.625 -5.359375 0.832031 -6.378906 1.25 -7.046875 C 1.664062 -7.710938 2.300781 -8.046875 3.15625 -8.046875 C 3.988281 -8.046875 4.625 -7.703125 5.0625 -7.015625 C 5.5 -6.328125 5.71875 -5.316406 5.71875 -3.984375 Z M 1.203125 -3.984375 C 1.203125 -2.753906 1.363281 -1.84375 1.6875 -1.25 C 2.007812 -0.664062 2.5 -0.375 3.15625 -0.375 C 3.832031 -0.375 4.328125 -0.675781 4.640625 -1.28125 C 4.953125 -1.894531 5.109375 -2.796875 5.109375 -3.984375 C 5.109375 -5.148438 4.953125 -6.035156 4.640625 -6.640625 C 4.328125 -7.253906 3.832031 -7.5625 3.15625 -7.5625 C 2.46875 -7.5625 1.96875 -7.253906 1.65625 -6.640625 C 1.351562 -6.035156 1.203125 -5.148438 1.203125 -3.984375 Z M 1.203125 -3.984375 "/></g></g></g><g fill="#000000" fill-opacity="1"><g transform="translate(32.115303, 189.014988)"><g><path d="M 1.59375 -1.296875 L 1.65625 -1.171875 C 1.382812 -0.210938 1.070312 0.65625 0.71875 1.4375 L 0.375 1.4375 C 0.644531 0.4375 0.84375 -0.472656 0.96875 -1.296875 Z M 1.59375 -1.296875 "/></g></g></g><g fill="#000000" fill-opacity="1"><g transform="translate(34.499565, 189.014988)"><g><path d="M 5.71875 -3.984375 C 5.71875 -2.585938 5.503906 -1.554688 5.078125 -0.890625 C 4.648438 -0.222656 4.007812 0.109375 3.15625 0.109375 C 2.320312 0.109375 1.691406 -0.234375 1.265625 -0.921875 C 0.835938 -1.609375 0.625 -2.628906 0.625 -3.984375 C 0.625 -5.359375 0.832031 -6.378906 1.25 -7.046875 C 1.664062 -7.710938 2.300781 -8.046875 3.15625 -8.046875 C 3.988281 -8.046875 4.625 -7.703125 5.0625 -7.015625 C 5.5 -6.328125 5.71875 -5.316406 5.71875 -3.984375 Z M 1.203125 -3.984375 C 1.203125 -2.753906 1.363281 -1.84375 1.6875 -1.25 C 2.007812 -0.664062 2.5 -0.375 3.15625 -0.375 C 3.832031 -0.375 4.328125 -0.675781 4.640625 -1.28125 C 4.953125 -1.894531 5.109375 -2.796875 5.109375 -3.984375 C 5.109375 -5.148438 4.953125 -6.035156 4.640625 -6.640625 C 4.328125 -7.253906 3.832031 -7.5625 3.15625 -7.5625 C 2.46875 -7.5625 1.96875 -7.253906 1.65625 -6.640625 C 1.351562 -6.035156 1.203125 -5.148438 1.203125 -3.984375 Z M 1.203125 -3.984375 "/></g></g></g><g fill="#000000" fill-opacity="1"><g transform="translate(40.834121, 189.014988)"><g><path d="M 5.71875 -3.984375 C 5.71875 -2.585938 5.503906 -1.554688 5.078125 -0.890625 C 4.648438 -0.222656 4.007812 0.109375 3.15625 0.109375 C 2.320312 0.109375 1.691406 -0.234375 1.265625 -0.921875 C 0.835938 -1.609375 0.625 -2.628906 0.625 -3.984375 C 0.625 -5.359375 0.832031 -6.378906 1.25 -7.046875 C 1.664062 -7.710938 2.300781 -8.046875 3.15625 -8.046875 C 3.988281 -8.046875 4.625 -7.703125 5.0625 -7.015625 C 5.5 -6.328125 5.71875 -5.316406 5.71875 -3.984375 Z M 1.203125 -3.984375 C 1.203125 -2.753906 1.363281 -1.84375 1.6875 -1.25 C 2.007812 -0.664062 2.5 -0.375 3.15625 -0.375 C 3.832031 -0.375 4.328125 -0.675781 4.640625 -1.28125 C 4.953125 -1.894531 5.109375 -2.796875 5.109375 -3.984375 C 5.109375 -5.148438 4.953125 -6.035156 4.640625 -6.640625 C 4.328125 -7.253906 3.832031 -7.5625 3.15625 -7.5625 C 2.46875 -7.5625 1.96875 -7.253906 1.65625 -6.640625 C 1.351562 -6.035156 1.203125 -5.148438 1.203125 -3.984375 Z M 1.203125 -3.984375 "/></g></g></g><g fill="#000000" fill-opacity="1"><g transform="translate(47.168677, 189.014988)"><g><path d="M 5.71875 -3.984375 C 5.71875 -2.585938 5.503906 -1.554688 5.078125 -0.890625 C 4.648438 -0.222656 4.007812 0.109375 3.15625 0.109375 C 2.320312 0.109375 1.691406 -0.234375 1.265625 -0.921875 C 0.835938 -1.609375 0.625 -2.628906 0.625 -3.984375 C 0.625 -5.359375 0.832031 -6.378906 1.25 -7.046875 C 1.664062 -7.710938 2.300781 -8.046875 3.15625 -8.046875 C 3.988281 -8.046875 4.625 -7.703125 5.0625 -7.015625 C 5.5 -6.328125 5.71875 -5.316406 5.71875 -3.984375 Z M 1.203125 -3.984375 C 1.203125 -2.753906 1.363281 -1.84375 1.6875 -1.25 C 2.007812 -0.664062 2.5 -0.375 3.15625 -0.375 C 3.832031 -0.375 4.328125 -0.675781 4.640625 -1.28125 C 4.953125 -1.894531 5.109375 -2.796875 5.109375 -3.984375 C 5.109375 -5.148438 4.953125 -6.035156 4.640625 -6.640625 C 4.328125 -7.253906 3.832031 -7.5625 3.15625 -7.5625 C 2.46875 -7.5625 1.96875 -7.253906 1.65625 -6.640625 C 1.351562 -6.035156 1.203125 -5.148438 1.203125 -3.984375 Z M 1.203125 -3.984375 "/></g></g></g><g fill="#000000" fill-opacity="1"><g transform="translate(53.494444, 189.014988)"><g/></g></g><g fill="#000000" fill-opacity="1"><g transform="translate(13.111634, 259.327483)"><g><path d="M 5.5625 0 L 0.609375 0 L 0.609375 -0.484375 L 2.71875 -2.671875 C 3.3125 -3.285156 3.726562 -3.753906 3.96875 -4.078125 C 4.207031 -4.410156 4.378906 -4.722656 4.484375 -5.015625 C 4.597656 -5.304688 4.65625 -5.617188 4.65625 -5.953125 C 4.65625 -6.421875 4.5 -6.800781 4.1875 -7.09375 C 3.882812 -7.394531 3.484375 -7.546875 2.984375 -7.546875 C 2.328125 -7.546875 1.695312 -7.304688 1.09375 -6.828125 L 0.796875 -7.203125 C 1.453125 -7.753906 2.1875 -8.03125 3 -8.03125 C 3.6875 -8.03125 4.226562 -7.84375 4.625 -7.46875 C 5.019531 -7.101562 5.21875 -6.597656 5.21875 -5.953125 C 5.21875 -5.429688 5.082031 -4.925781 4.8125 -4.4375 C 4.550781 -3.945312 4.066406 -3.34375 3.359375 -2.625 L 1.328125 -0.546875 L 1.328125 -0.515625 L 5.5625 -0.515625 Z M 5.5625 0 "/></g></g></g><g fill="#000000" fill-opacity="1"><g transform="translate(19.44619, 259.327483)"><g><path d="M 2.90625 -4.765625 C 3.75 -4.765625 4.414062 -4.554688 4.90625 -4.140625 C 5.394531 -3.734375 5.640625 -3.175781 5.640625 -2.46875 C 5.640625 -1.65625 5.382812 -1.019531 4.875 -0.5625 C 4.363281 -0.113281 3.664062 0.109375 2.78125 0.109375 C 2.382812 0.109375 2.007812 0.0703125 1.65625 0 C 1.300781 -0.0820312 1.007812 -0.195312 0.78125 -0.34375 L 0.78125 -0.90625 C 1.164062 -0.695312 1.507812 -0.554688 1.8125 -0.484375 C 2.113281 -0.410156 2.4375 -0.375 2.78125 -0.375 C 3.476562 -0.375 4.035156 -0.554688 4.453125 -0.921875 C 4.867188 -1.285156 5.078125 -1.78125 5.078125 -2.40625 C 5.078125 -2.988281 4.875 -3.445312 4.46875 -3.78125 C 4.0625 -4.125 3.507812 -4.296875 2.8125 -4.296875 C 2.34375 -4.296875 1.847656 -4.222656 1.328125 -4.078125 L 1 -4.296875 L 1.328125 -7.921875 L 5.140625 -7.921875 L 5.140625 -7.40625 L 1.828125 -7.40625 L 1.59375 -4.609375 C 2.15625 -4.710938 2.59375 -4.765625 2.90625 -4.765625 Z M 2.90625 -4.765625 "/></g></g></g><g fill="#000000" fill-opacity="1"><g transform="translate(25.780747, 259.327483)"><g><path d="M 5.71875 -3.984375 C 5.71875 -2.585938 5.503906 -1.554688 5.078125 -0.890625 C 4.648438 -0.222656 4.007812 0.109375 3.15625 0.109375 C 2.320312 0.109375 1.691406 -0.234375 1.265625 -0.921875 C 0.835938 -1.609375 0.625 -2.628906 0.625 -3.984375 C 0.625 -5.359375 0.832031 -6.378906 1.25 -7.046875 C 1.664062 -7.710938 2.300781 -8.046875 3.15625 -8.046875 C 3.988281 -8.046875 4.625 -7.703125 5.0625 -7.015625 C 5.5 -6.328125 5.71875 -5.316406 5.71875 -3.984375 Z M 1.203125 -3.984375 C 1.203125 -2.753906 1.363281 -1.84375 1.6875 -1.25 C 2.007812 -0.664062 2.5 -0.375 3.15625 -0.375 C 3.832031 -0.375 4.328125 -0.675781 4.640625 -1.28125 C 4.953125 -1.894531 5.109375 -2.796875 5.109375 -3.984375 C 5.109375 -5.148438 4.953125 -6.035156 4.640625 -6.640625 C 4.328125 -7.253906 3.832031 -7.5625 3.15625 -7.5625 C 2.46875 -7.5625 1.96875 -7.253906 1.65625 -6.640625 C 1.351562 -6.035156 1.203125 -5.148438 1.203125 -3.984375 Z M 1.203125 -3.984375 "/></g></g></g><g fill="#000000" fill-opacity="1"><g transform="translate(32.115303, 259.327483)"><g><path d="M 1.59375 -1.296875 L 1.65625 -1.171875 C 1.382812 -0.210938 1.070312 0.65625 0.71875 1.4375 L 0.375 1.4375 C 0.644531 0.4375 0.84375 -0.472656 0.96875 -1.296875 Z M 1.59375 -1.296875 "/></g></g></g><g fill="#000000" fill-opacity="1"><g transform="translate(34.499565, 259.327483)"><g><path d="M 5.71875 -3.984375 C 5.71875 -2.585938 5.503906 -1.554688 5.078125 -0.890625 C 4.648438 -0.222656 4.007812 0.109375 3.15625 0.109375 C 2.320312 0.109375 1.691406 -0.234375 1.265625 -0.921875 C 0.835938 -1.609375 0.625 -2.628906 0.625 -3.984375 C 0.625 -5.359375 0.832031 -6.378906 1.25 -7.046875 C 1.664062 -7.710938 2.300781 -8.046875 3.15625 -8.046875 C 3.988281 -8.046875 4.625 -7.703125 5.0625 -7.015625 C 5.5 -6.328125 5.71875 -5.316406 5.71875 -3.984375 Z M 1.203125 -3.984375 C 1.203125 -2.753906 1.363281 -1.84375 1.6875 -1.25 C 2.007812 -0.664062 2.5 -0.375 3.15625 -0.375 C 3.832031 -0.375 4.328125 -0.675781 4.640625 -1.28125 C 4.953125 -1.894531 5.109375 -2.796875 5.109375 -3.984375 C 5.109375 -5.148438 4.953125 -6.035156 4.640625 -6.640625 C 4.328125 -7.253906 3.832031 -7.5625 3.15625 -7.5625 C 2.46875 -7.5625 1.96875 -7.253906 1.65625 -6.640625 C 1.351562 -6.035156 1.203125 -5.148438 1.203125 -3.984375 Z M 1.203125 -3.984375 "/></g></g></g><g fill="#000000" fill-opacity="1"><g transform="translate(40.834121, 259.327483)"><g><path d="M 5.71875 -3.984375 C 5.71875 -2.585938 5.503906 -1.554688 5.078125 -0.890625 C 4.648438 -0.222656 4.007812 0.109375 3.15625 0.109375 C 2.320312 0.109375 1.691406 -0.234375 1.265625 -0.921875 C 0.835938 -1.609375 0.625 -2.628906 0.625 -3.984375 C 0.625 -5.359375 0.832031 -6.378906 1.25 -7.046875 C 1.664062 -7.710938 2.300781 -8.046875 3.15625 -8.046875 C 3.988281 -8.046875 4.625 -7.703125 5.0625 -7.015625 C 5.5 -6.328125 5.71875 -5.316406 5.71875 -3.984375 Z M 1.203125 -3.984375 C 1.203125 -2.753906 1.363281 -1.84375 1.6875 -1.25 C 2.007812 -0.664062 2.5 -0.375 3.15625 -0.375 C 3.832031 -0.375 4.328125 -0.675781 4.640625 -1.28125 C 4.953125 -1.894531 5.109375 -2.796875 5.109375 -3.984375 C 5.109375 -5.148438 4.953125 -6.035156 4.640625 -6.640625 C 4.328125 -7.253906 3.832031 -7.5625 3.15625 -7.5625 C 2.46875 -7.5625 1.96875 -7.253906 1.65625 -6.640625 C 1.351562 -6.035156 1.203125 -5.148438 1.203125 -3.984375 Z M 1.203125 -3.984375 "/></g></g></g><g fill="#000000" fill-opacity="1"><g transform="translate(47.168677, 259.327483)"><g><path d="M 5.71875 -3.984375 C 5.71875 -2.585938 5.503906 -1.554688 5.078125 -0.890625 C 4.648438 -0.222656 4.007812 0.109375 3.15625 0.109375 C 2.320312 0.109375 1.691406 -0.234375 1.265625 -0.921875 C 0.835938 -1.609375 0.625 -2.628906 0.625 -3.984375 C 0.625 -5.359375 0.832031 -6.378906 1.25 -7.046875 C 1.664062 -7.710938 2.300781 -8.046875 3.15625 -8.046875 C 3.988281 -8.046875 4.625 -7.703125 5.0625 -7.015625 C 5.5 -6.328125 5.71875 -5.316406 5.71875 -3.984375 Z M 1.203125 -3.984375 C 1.203125 -2.753906 1.363281 -1.84375 1.6875 -1.25 C 2.007812 -0.664062 2.5 -0.375 3.15625 -0.375 C 3.832031 -0.375 4.328125 -0.675781 4.640625 -1.28125 C 4.953125 -1.894531 5.109375 -2.796875 5.109375 -3.984375 C 5.109375 -5.148438 4.953125 -6.035156 4.640625 -6.640625 C 4.328125 -7.253906 3.832031 -7.5625 3.15625 -7.5625 C 2.46875 -7.5625 1.96875 -7.253906 1.65625 -6.640625 C 1.351562 -6.035156 1.203125 -5.148438 1.203125 -3.984375 Z M 1.203125 -3.984375 "/></g></g></g><g fill="#000000" fill-opacity="1"><g transform="translate(53.494444, 259.327483)"><g/></g></g><g fill="#000000" fill-opacity="1"><g transform="translate(47.171259, 329.639978)"><g><path d="M 5.71875 -3.984375 C 5.71875 -2.585938 5.503906 -1.554688 5.078125 -0.890625 C 4.648438 -0.222656 4.007812 0.109375 3.15625 0.109375 C 2.320312 0.109375 1.691406 -0.234375 1.265625 -0.921875 C 0.835938 -1.609375 0.625 -2.628906 0.625 -3.984375 C 0.625 -5.359375 0.832031 -6.378906 1.25 -7.046875 C 1.664062 -7.710938 2.300781 -8.046875 3.15625 -8.046875 C 3.988281 -8.046875 4.625 -7.703125 5.0625 -7.015625 C 5.5 -6.328125 5.71875 -5.316406 5.71875 -3.984375 Z M 1.203125 -3.984375 C 1.203125 -2.753906 1.363281 -1.84375 1.6875 -1.25 C 2.007812 -0.664062 2.5 -0.375 3.15625 -0.375 C 3.832031 -0.375 4.328125 -0.675781 4.640625 -1.28125 C 4.953125 -1.894531 5.109375 -2.796875 5.109375 -3.984375 C 5.109375 -5.148438 4.953125 -6.035156 4.640625 -6.640625 C 4.328125 -7.253906 3.832031 -7.5625 3.15625 -7.5625 C 2.46875 -7.5625 1.96875 -7.253906 1.65625 -6.640625 C 1.351562 -6.035156 1.203125 -5.148438 1.203125 -3.984375 Z M 1.203125 -3.984375 "/></g></g></g><g fill="#000000" fill-opacity="1"><g transform="translate(53.499383, 329.639978)"><g/></g></g><path fill="#ff5757" d="M 100.082031 56.171875 C 100.082031 55.773438 100.007812 55.390625 99.855469 55.023438 C 99.703125 54.65625 99.484375 54.332031 99.203125 54.050781 C 98.921875 53.769531 98.597656 53.550781 98.230469 53.398438 C 97.863281 53.246094 97.480469 53.171875 97.082031 53.171875 C 96.683594 53.171875 96.300781 53.246094 95.933594 53.398438 C 95.566406 53.550781 95.242188 53.769531 94.960938 54.050781 C 94.679688 54.332031 94.464844 54.65625 94.3125 55.023438 C 94.160156 55.390625 94.082031 55.773438 94.082031 56.171875 C 94.082031 56.570312 94.160156 56.953125 94.3125 57.320312 C 94.464844 57.6875 94.679688 58.011719 94.960938 58.292969 C 95.242188 58.574219 95.566406 58.789062 95.933594 58.941406 C 96.300781 59.09375 96.683594 59.171875 97.082031 59.171875 C 97.480469 59.171875 97.863281 59.09375 98.230469 58.941406 C 98.597656 58.789062 98.921875 58.574219 99.203125 58.292969 C 99.484375 58.011719 99.703125 57.6875 99.855469 57.320312 C 100.007812 56.953125 100.082031 56.570312 100.082031 56.171875 Z M 98.628906 55.492188 C 97.726562 53.441406 94.636719 54.796875 95.539062 56.847656 C 95.539062 56.847656 95.5625 56.902344 95.609375 57.007812 C 96.730469 59.5625 111.09375 92.097656 128.253906 124.492188 C 132.804688 133.082031 137.554688 141.664062 142.304688 149.675781 C 150.589844 163.652344 158.894531 175.898438 166.175781 183.492188 C 167.726562 185.109375 170.164062 182.773438 168.613281 181.15625 C 161.464844 173.703125 153.335938 161.667969 145.207031 147.953125 C 140.484375 139.988281 135.761719 131.457031 131.238281 122.914062 C 114.132812 90.621094 99.816406 58.195312 98.699219 55.652344 C 98.652344 55.546875 98.628906 55.492188 98.628906 55.492188 " fill-opacity="1" fill-rule="nonzero"/><path fill="#ff5757" d="M 170.394531 182.324219 C 170.394531 181.925781 170.320312 181.542969 170.167969 181.175781 C 170.015625 180.808594 169.796875 180.484375 169.515625 180.203125 C 169.234375 179.921875 168.910156 179.707031 168.542969 179.554688 C 168.175781 179.402344 167.792969 179.324219 167.394531 179.324219 C 166.996094 179.324219 166.613281 179.402344 166.246094 179.554688 C 165.878906 179.707031 165.554688 179.921875 165.273438 180.203125 C 164.992188 180.484375 164.777344 180.808594 164.625 181.175781 C 164.472656 181.542969 164.394531 181.925781 164.394531 182.324219 C 164.394531 182.722656 164.472656 183.105469 164.625 183.472656 C 164.777344 183.839844 164.992188 184.164062 165.273438 184.445312 C 165.554688 184.726562 165.878906 184.945312 166.246094 185.097656 C 166.613281 185.25 166.996094 185.324219 167.394531 185.324219 C 167.792969 185.324219 168.175781 185.25 168.542969 185.097656 C 168.910156 184.945312 169.234375 184.726562 169.515625 184.445312 C 169.796875 184.164062 170.015625 183.839844 170.167969 183.472656 C 170.320312 183.105469 170.394531 182.722656 170.394531 182.324219 Z M 168.613281 181.15625 C 167.0625 179.539062 164.625 181.875 166.175781 183.492188 C 182.902344 200.933594 202.292969 211.003906 221.710938 220 C 224.878906 221.46875 228.046875 222.90625 231.203125 224.347656 C 233.140625 225.230469 235.074219 226.113281 237 227.003906 C 239.035156 227.941406 240.449219 224.878906 238.414062 223.9375 C 236.484375 223.046875 234.542969 222.160156 232.601562 221.273438 C 229.453125 219.839844 226.289062 218.402344 223.128906 216.9375 C 204.078125 208.113281 185.027344 198.273438 168.613281 181.15625 " fill-opacity="1" fill-rule="nonzero"/><path fill="#ff5757" d="M 240.707031 225.46875 C 240.707031 225.074219 240.632812 224.691406 240.480469 224.324219 C 240.328125 223.953125 240.109375 223.628906 239.828125 223.347656 C 239.546875 223.066406 239.222656 222.851562 238.855469 222.699219 C 238.488281 222.546875 238.105469 222.46875 237.707031 222.46875 C 237.308594 222.46875 236.925781 222.546875 236.558594 222.699219 C 236.191406 222.851562 235.867188 223.066406 235.585938 223.347656 C 235.304688 223.628906 235.089844 223.953125 234.9375 224.324219 C 234.785156 224.691406 234.707031 225.074219 234.707031 225.46875 C 234.707031 225.867188 234.785156 226.25 234.9375 226.617188 C 235.089844 226.984375 235.304688 227.3125 235.585938 227.59375 C 235.867188 227.875 236.191406 228.089844 236.558594 228.242188 C 236.925781 228.394531 237.308594 228.46875 237.707031 228.46875 C 238.105469 228.46875 238.488281 228.394531 238.855469 228.242188 C 239.222656 228.089844 239.546875 227.875 239.828125 227.59375 C 240.109375 227.3125 240.328125 226.984375 240.480469 226.617188 C 240.632812 226.25 240.707031 225.867188 240.707031 225.46875 Z M 238.414062 223.9375 C 236.378906 223 234.964844 226.0625 237 227.003906 C 240 228.386719 243.417969 229.804688 247.097656 231.21875 C 253.007812 233.492188 259.59375 235.761719 266.1875 237.898438 C 286.65625 244.539062 307.179688 249.890625 307.589844 249.996094 C 307.59375 250 307.59375 250 307.59375 250 C 309.765625 250.5625 310.613281 247.296875 308.445312 246.734375 C 308.445312 246.734375 308.445312 246.734375 308.4375 246.730469 C 308.03125 246.625 287.605469 241.296875 267.230469 234.691406 C 260.695312 232.570312 254.167969 230.320312 248.308594 228.066406 C 244.703125 226.679688 241.351562 225.296875 238.414062 223.9375 M 311.019531 248.367188 C 311.019531 247.96875 310.945312 247.585938 310.792969 247.21875 C 310.640625 246.851562 310.421875 246.527344 310.140625 246.246094 C 309.859375 245.964844 309.535156 245.746094 309.167969 245.59375 C 308.800781 245.441406 308.417969 245.367188 308.019531 245.367188 C 307.621094 245.367188 307.238281 245.441406 306.871094 245.59375 C 306.503906 245.746094 306.179688 245.964844 305.898438 246.246094 C 305.617188 246.527344 305.402344 246.851562 305.25 247.21875 C 305.097656 247.585938 305.019531 247.96875 305.019531 248.367188 C 305.019531 248.765625 305.097656 249.148438 305.25 249.515625 C 305.402344 249.882812 305.617188 250.207031 305.898438 250.488281 C 306.179688 250.769531 306.503906 250.984375 306.871094 251.136719 C 307.238281 251.289062 307.621094 251.367188 308.019531 251.367188 C 308.417969 251.367188 308.800781 251.289062 309.167969 251.136719 C 309.535156 250.984375 309.859375 250.769531 310.140625 250.488281 C 310.421875 250.207031 310.640625 249.882812 310.792969 249.515625 C 310.945312 249.148438 311.019531 248.765625 311.019531 248.367188 Z M 311.019531 248.367188 " fill-opacity="1" fill-rule="nonzero"/><path fill="#5e17eb" d="M 100.082031 119.683594 C 100.082031 119.285156 100.007812 118.902344 99.855469 118.535156 C 99.703125 118.167969 99.484375 117.84375 99.203125 117.5625 C 98.921875 117.28125 98.597656 117.0625 98.230469 116.910156 C 97.863281 116.757812 97.480469 116.683594 97.082031 116.683594 C 96.683594 116.683594 96.300781 116.757812 95.933594 116.910156 C 95.566406 117.0625 95.242188 117.28125 94.960938 117.5625 C 94.679688 117.84375 94.464844 118.167969 94.3125 118.535156 C 94.160156 118.902344 94.082031 119.285156 94.082031 119.683594 C 94.082031 120.082031 94.160156 120.460938 94.3125 120.832031 C 94.464844 121.199219 94.679688 121.523438 94.960938 121.804688 C 95.242188 122.085938 95.566406 122.300781 95.933594 122.453125 C 96.300781 122.605469 96.683594 122.683594 97.082031 122.683594 C 97.480469 122.683594 97.863281 122.605469 98.230469 122.453125 C 98.597656 122.300781 98.921875 122.085938 99.203125 121.804688 C 99.484375 121.523438 99.703125 121.199219 99.855469 120.832031 C 100.007812 120.460938 100.082031 120.082031 100.082031 119.683594 Z M 98.511719 118.785156 C 97.316406 116.886719 94.460938 118.683594 95.65625 120.582031 C 95.65625 120.582031 95.675781 120.617188 95.722656 120.6875 C 96.800781 122.402344 110.605469 144.230469 127.109375 166.15625 C 131.640625 172.175781 136.375 178.203125 141.105469 183.824219 C 150.019531 194.421875 158.929688 203.570312 166.457031 208.597656 C 168.320312 209.84375 170.195312 207.035156 168.332031 205.792969 C 161.007812 200.898438 152.359375 191.960938 143.6875 181.652344 C 138.996094 176.078125 134.300781 170.097656 129.804688 164.128906 C 113.386719 142.3125 99.652344 120.59375 98.578125 118.890625 C 98.535156 118.820312 98.511719 118.785156 98.511719 118.785156 " fill-opacity="1" fill-rule="nonzero"/><path fill="#5e17eb" d="M 170.394531 207.195312 C 170.394531 206.796875 170.320312 206.414062 170.167969 206.046875 C 170.015625 205.679688 169.796875 205.355469 169.515625 205.074219 C 169.234375 204.792969 168.910156 204.574219 168.542969 204.421875 C 168.175781 204.269531 167.792969 204.195312 167.394531 204.195312 C 166.996094 204.195312 166.613281 204.269531 166.246094 204.421875 C 165.878906 204.574219 165.554688 204.792969 165.273438 205.074219 C 164.992188 205.355469 164.777344 205.679688 164.625 206.046875 C 164.472656 206.414062 164.394531 206.796875 164.394531 207.195312 C 164.394531 207.59375 164.472656 207.976562 164.625 208.34375 C 164.777344 208.710938 164.992188 209.035156 165.273438 209.316406 C 165.554688 209.597656 165.878906 209.8125 166.246094 209.964844 C 166.613281 210.117188 166.996094 210.195312 167.394531 210.195312 C 167.792969 210.195312 168.175781 210.117188 168.542969 209.964844 C 168.910156 209.8125 169.234375 209.597656 169.515625 209.316406 C 169.796875 209.035156 170.015625 208.710938 170.167969 208.34375 C 170.320312 207.976562 170.394531 207.59375 170.394531 207.195312 Z M 168.332031 205.792969 C 166.46875 204.546875 164.59375 207.351562 166.457031 208.597656 C 181.226562 218.460938 197.820312 221.75 214.441406 224.730469 C 215.167969 224.863281 215.890625 224.992188 216.613281 225.121094 C 223.566406 226.363281 230.503906 227.605469 237.292969 229.332031 C 239.464844 229.886719 240.296875 226.617188 238.125 226.0625 C 231.257812 224.316406 224.238281 223.054688 217.207031 221.796875 C 216.484375 221.667969 215.761719 221.539062 215.039062 221.410156 C 198.875 218.511719 182.703125 215.386719 168.332031 205.792969 " fill-opacity="1" fill-rule="nonzero"/><path fill="#5e17eb" d="M 240.707031 227.699219 C 240.707031 227.300781 240.632812 226.917969 240.480469 226.550781 C 240.328125 226.183594 240.109375 225.859375 239.828125 225.578125 C 239.546875 225.296875 239.222656 225.078125 238.855469 224.925781 C 238.488281 224.773438 238.105469 224.699219 237.707031 224.699219 C 237.308594 224.699219 236.925781 224.773438 236.558594 224.925781 C 236.191406 225.078125 235.867188 225.296875 235.585938 225.578125 C 235.304688 225.859375 235.089844 226.183594 234.9375 226.550781 C 234.785156 226.917969 234.707031 227.300781 234.707031 227.699219 C 234.707031 228.097656 234.785156 228.480469 234.9375 228.847656 C 235.089844 229.214844 235.304688 229.539062 235.585938 229.820312 C 235.867188 230.101562 236.191406 230.316406 236.558594 230.46875 C 236.925781 230.621094 237.308594 230.699219 237.707031 230.699219 C 238.105469 230.699219 238.488281 230.621094 238.855469 230.46875 C 239.222656 230.316406 239.546875 230.101562 239.828125 229.820312 C 240.109375 229.539062 240.328125 229.214844 240.480469 228.847656 C 240.632812 228.480469 240.707031 228.097656 240.707031 227.699219 Z M 238.125 226.0625 C 235.953125 225.511719 235.121094 228.78125 237.292969 229.332031 C 243.605469 230.941406 251.648438 232.804688 260.023438 234.664062 C 261.882812 235.078125 263.757812 235.488281 265.636719 235.898438 C 286.378906 240.429688 307.265625 244.617188 307.683594 244.703125 C 307.6875 244.703125 307.6875 244.703125 307.6875 244.703125 C 309.886719 245.144531 310.550781 241.835938 308.351562 241.394531 C 308.351562 241.394531 308.351562 241.394531 308.34375 241.394531 C 307.929688 241.308594 287.070312 237.128906 266.355469 232.601562 C 264.484375 232.191406 262.613281 231.78125 260.757812 231.367188 C 252.417969 229.515625 244.410156 227.664062 238.125 226.0625 M 311.019531 243.050781 C 311.019531 242.652344 310.945312 242.269531 310.792969 241.902344 C 310.640625 241.535156 310.421875 241.210938 310.140625 240.925781 C 309.859375 240.644531 309.535156 240.429688 309.167969 240.277344 C 308.800781 240.125 308.417969 240.050781 308.019531 240.050781 C 307.621094 240.050781 307.238281 240.125 306.871094 240.277344 C 306.503906 240.429688 306.179688 240.644531 305.898438 240.925781 C 305.617188 241.210938 305.402344 241.535156 305.25 241.902344 C 305.097656 242.269531 305.019531 242.652344 305.019531 243.050781 C 305.019531 243.445312 305.097656 243.828125 305.25 244.195312 C 305.402344 244.566406 305.617188 244.890625 305.898438 245.171875 C 306.179688 245.453125 306.503906 245.667969 306.871094 245.820312 C 307.238281 245.972656 307.621094 246.050781 308.019531 246.050781 C 308.417969 246.050781 308.800781 245.972656 309.167969 245.820312 C 309.535156 245.667969 309.859375 245.453125 310.140625 245.171875 C 310.421875 244.890625 310.640625 244.566406 310.792969 244.195312 C 310.945312 243.828125 311.019531 243.445312 311.019531 243.050781 Z M 311.019531 243.050781 " fill-opacity="1" fill-rule="nonzero"/><path fill="#ffbd59" d="M 100.082031 86.253906 C 100.082031 85.859375 100.007812 85.476562 99.855469 85.109375 C 99.703125 84.738281 99.484375 84.414062 99.203125 84.132812 C 98.921875 83.851562 98.597656 83.636719 98.230469 83.484375 C 97.863281 83.332031 97.480469 83.253906 97.082031 83.253906 C 96.683594 83.253906 96.300781 83.332031 95.933594 83.484375 C 95.566406 83.636719 95.242188 83.851562 94.960938 84.132812 C 94.679688 84.414062 94.464844 84.738281 94.3125 85.109375 C 94.160156 85.476562 94.082031 85.859375 94.082031 86.253906 C 94.082031 86.652344 94.160156 87.035156 94.3125 87.402344 C 94.464844 87.769531 94.679688 88.097656 94.960938 88.378906 C 95.242188 88.660156 95.566406 88.875 95.933594 89.027344 C 96.300781 89.179688 96.683594 89.253906 97.082031 89.253906 C 97.480469 89.253906 97.863281 89.179688 98.230469 89.027344 C 98.597656 88.875 98.921875 88.660156 99.203125 88.378906 C 99.484375 88.097656 99.703125 87.769531 99.855469 87.402344 C 100.007812 87.035156 100.082031 86.652344 100.082031 86.253906 Z M 98.535156 85.394531 C 97.390625 83.46875 94.488281 85.1875 95.632812 87.117188 C 95.632812 87.117188 95.65625 87.15625 95.699219 87.234375 C 96.8125 89.109375 111.0625 113.019531 127.9375 136.964844 C 132.183594 142.992188 136.601562 149.023438 141.015625 154.707031 C 149.914062 166.164062 158.820312 176.207031 166.363281 182.039062 C 168.136719 183.410156 170.199219 180.738281 168.425781 179.367188 C 161.054688 173.671875 152.375 163.832031 143.679688 152.636719 C 139.296875 146.996094 134.914062 141.007812 130.695312 135.019531 C 113.894531 111.179688 99.710938 87.378906 98.605469 85.511719 C 98.558594 85.433594 98.535156 85.394531 98.535156 85.394531 " fill-opacity="1" fill-rule="nonzero"/><path fill="#ffbd59" d="M 170.394531 180.703125 C 170.394531 180.304688 170.320312 179.921875 170.167969 179.554688 C 170.015625 179.1875 169.796875 178.863281 169.515625 178.582031 C 169.234375 178.300781 168.910156 178.082031 168.542969 177.929688 C 168.175781 177.777344 167.792969 177.703125 167.394531 177.703125 C 166.996094 177.703125 166.613281 177.777344 166.246094 177.929688 C 165.878906 178.082031 165.554688 178.300781 165.273438 178.582031 C 164.992188 178.863281 164.777344 179.1875 164.625 179.554688 C 164.472656 179.921875 164.394531 180.304688 164.394531 180.703125 C 164.394531 181.101562 164.472656 181.484375 164.625 181.851562 C 164.777344 182.21875 164.992188 182.542969 165.273438 182.824219 C 165.554688 183.105469 165.878906 183.324219 166.246094 183.472656 C 166.613281 183.625 166.996094 183.703125 167.394531 183.703125 C 167.792969 183.703125 168.175781 183.625 168.542969 183.472656 C 168.910156 183.324219 169.234375 183.105469 169.515625 182.824219 C 169.796875 182.542969 170.015625 182.21875 170.167969 181.851562 C 170.320312 181.484375 170.394531 181.101562 170.394531 180.703125 Z M 168.425781 179.367188 C 166.652344 177.996094 164.589844 180.667969 166.363281 182.039062 C 182.144531 194.234375 199.957031 200.144531 217.785156 205.253906 C 220.203125 205.945312 222.621094 206.625 225.03125 207.304688 C 229.117188 208.449219 233.1875 209.597656 237.222656 210.8125 C 239.367188 211.460938 240.339844 208.226562 238.195312 207.582031 C 234.144531 206.359375 230.050781 205.207031 225.945312 204.054688 C 223.539062 203.378906 221.125 202.699219 218.714844 202.007812 C 201.289062 197.019531 183.855469 191.292969 168.425781 179.367188 " fill-opacity="1" fill-rule="nonzero"/><path fill="#ffbd59" d="M 240.707031 209.195312 C 240.707031 208.800781 240.632812 208.417969 240.480469 208.050781 C 240.328125 207.679688 240.109375 207.355469 239.828125 207.074219 C 239.546875 206.792969 239.222656 206.578125 238.855469 206.425781 C 238.488281 206.273438 238.105469 206.195312 237.707031 206.195312 C 237.308594 206.195312 236.925781 206.273438 236.558594 206.425781 C 236.191406 206.578125 235.867188 206.792969 235.585938 207.074219 C 235.304688 207.355469 235.089844 207.679688 234.9375 208.050781 C 234.785156 208.417969 234.707031 208.800781 234.707031 209.195312 C 234.707031 209.59375 234.785156 209.976562 234.9375 210.34375 C 235.089844 210.710938 235.304688 211.039062 235.585938 211.320312 C 235.867188 211.601562 236.191406 211.816406 236.558594 211.96875 C 236.925781 212.121094 237.308594 212.195312 237.707031 212.195312 C 238.105469 212.195312 238.488281 212.121094 238.855469 211.96875 C 239.222656 211.816406 239.546875 211.601562 239.828125 211.320312 C 240.109375 211.039062 240.328125 210.710938 240.480469 210.34375 C 240.632812 209.976562 240.707031 209.59375 240.707031 209.195312 Z M 238.195312 207.582031 C 236.050781 206.933594 235.074219 210.167969 237.222656 210.8125 C 238.390625 211.164062 239.617188 211.519531 240.898438 211.871094 C 248.28125 213.90625 257.398438 215.9375 266.503906 217.777344 C 286.960938 221.914062 307.347656 225.085938 307.753906 225.148438 C 307.757812 225.152344 307.761719 225.152344 307.761719 225.152344 C 309.976562 225.496094 310.492188 222.160156 308.277344 221.816406 C 308.277344 221.816406 308.277344 221.816406 308.273438 221.816406 C 307.867188 221.753906 287.554688 218.59375 267.171875 214.472656 C 258.148438 212.644531 249.113281 210.632812 241.796875 208.617188 C 240.542969 208.273438 239.339844 207.925781 238.195312 207.582031 M 311.019531 223.484375 C 311.019531 223.085938 310.945312 222.703125 310.792969 222.335938 C 310.640625 221.96875 310.421875 221.644531 310.140625 221.363281 C 309.859375 221.082031 309.535156 220.863281 309.167969 220.710938 C 308.800781 220.558594 308.417969 220.484375 308.019531 220.484375 C 307.621094 220.484375 307.238281 220.558594 306.871094 220.710938 C 306.503906 220.863281 306.179688 221.082031 305.898438 221.363281 C 305.617188 221.644531 305.402344 221.96875 305.25 222.335938 C 305.097656 222.703125 305.019531 223.085938 305.019531 223.484375 C 305.019531 223.882812 305.097656 224.265625 305.25 224.632812 C 305.402344 225 305.617188 225.324219 305.898438 225.605469 C 306.179688 225.886719 306.503906 226.101562 306.871094 226.253906 C 307.238281 226.40625 307.621094 226.484375 308.019531 226.484375 C 308.417969 226.484375 308.800781 226.40625 309.167969 226.253906 C 309.535156 226.101562 309.859375 225.886719 310.140625 225.605469 C 310.421875 225.324219 310.640625 225 310.792969 224.632812 C 310.945312 224.265625 311.019531 223.882812 311.019531 223.484375 Z M 311.019531 223.484375 " fill-opacity="1" fill-rule="nonzero"/><path fill="#62006e" d="M 100.082031 59.792969 C 100.082031 59.394531 100.007812 59.011719 99.855469 58.644531 C 99.703125 58.277344 99.484375 57.953125 99.203125 57.671875 C 98.921875 57.390625 98.597656 57.171875 98.230469 57.019531 C 97.863281 56.867188 97.480469 56.792969 97.082031 56.792969 C 96.683594 56.792969 96.300781 56.867188 95.933594 57.019531 C 95.566406 57.171875 95.242188 57.390625 94.960938 57.671875 C 94.679688 57.953125 94.464844 58.277344 94.3125 58.644531 C 94.160156 59.011719 94.082031 59.394531 94.082031 59.792969 C 94.082031 60.191406 94.160156 60.574219 94.3125 60.941406 C 94.464844 61.308594 94.679688 61.632812 94.960938 61.914062 C 95.242188 62.195312 95.566406 62.410156 95.933594 62.5625 C 96.300781 62.714844 96.683594 62.792969 97.082031 62.792969 C 97.480469 62.792969 97.863281 62.714844 98.230469 62.5625 C 98.597656 62.410156 98.921875 62.195312 99.203125 61.914062 C 99.484375 61.632812 99.703125 61.308594 99.855469 60.941406 C 100.007812 60.574219 100.082031 60.191406 100.082031 59.792969 Z M 98.5625 58.980469 C 97.484375 57.015625 94.523438 58.640625 95.605469 60.605469 C 95.605469 60.605469 95.628906 60.648438 95.671875 60.730469 C 96.78125 62.742188 110.949219 88.398438 127.804688 114.242188 C 132.046875 120.746094 136.457031 127.261719 140.875 133.417969 C 149.773438 145.820312 158.699219 156.75 166.300781 163.226562 C 168.007812 164.679688 170.195312 162.109375 168.488281 160.65625 C 161.046875 154.316406 152.328125 143.589844 143.617188 131.449219 C 139.226562 125.335938 134.84375 118.859375 130.628906 112.398438 C 113.847656 86.660156 99.734375 61.109375 98.628906 59.105469 C 98.585938 59.023438 98.5625 58.980469 98.5625 58.980469 " fill-opacity="1" fill-rule="nonzero"/><path fill="#62006e" d="M 170.394531 161.941406 C 170.394531 161.542969 170.320312 161.160156 170.167969 160.792969 C 170.015625 160.425781 169.796875 160.101562 169.515625 159.820312 C 169.234375 159.539062 168.910156 159.320312 168.542969 159.167969 C 168.175781 159.015625 167.792969 158.941406 167.394531 158.941406 C 166.996094 158.941406 166.613281 159.015625 166.246094 159.167969 C 165.878906 159.320312 165.554688 159.539062 165.273438 159.820312 C 164.992188 160.101562 164.777344 160.425781 164.625 160.792969 C 164.472656 161.160156 164.394531 161.542969 164.394531 161.941406 C 164.394531 162.339844 164.472656 162.722656 164.625 163.089844 C 164.777344 163.457031 164.992188 163.78125 165.273438 164.0625 C 165.554688 164.34375 165.878906 164.5625 166.246094 164.714844 C 166.613281 164.863281 166.996094 164.941406 167.394531 164.941406 C 167.792969 164.941406 168.175781 164.863281 168.542969 164.714844 C 168.910156 164.5625 169.234375 164.34375 169.515625 164.0625 C 169.796875 163.78125 170.015625 163.457031 170.167969 163.089844 C 170.320312 162.722656 170.394531 162.339844 170.394531 161.941406 Z M 168.488281 160.65625 C 166.785156 159.203125 164.59375 161.773438 166.300781 163.226562 C 182.648438 177.148438 201.210938 184.691406 219.800781 191.085938 C 223.675781 192.417969 227.554688 193.703125 231.414062 194.988281 C 233.335938 195.628906 235.257812 196.269531 237.167969 196.917969 C 239.289062 197.632812 240.371094 194.4375 238.25 193.71875 C 236.332031 193.070312 234.40625 192.429688 232.480469 191.785156 C 228.632812 190.503906 224.765625 189.222656 220.898438 187.894531 C 202.699219 181.632812 184.496094 174.292969 168.488281 160.65625 " fill-opacity="1" fill-rule="nonzero"/><path fill="#62006e" d="M 240.707031 195.316406 C 240.707031 194.917969 240.632812 194.535156 240.480469 194.167969 C 240.328125 193.800781 240.109375 193.476562 239.828125 193.195312 C 239.546875 192.914062 239.222656 192.699219 238.855469 192.546875 C 238.488281 192.394531 238.105469 192.316406 237.707031 192.316406 C 237.308594 192.316406 236.925781 192.394531 236.558594 192.546875 C 236.191406 192.699219 235.867188 192.914062 235.585938 193.195312 C 235.304688 193.476562 235.089844 193.800781 234.9375 194.167969 C 234.785156 194.535156 234.707031 194.917969 234.707031 195.316406 C 234.707031 195.714844 234.785156 196.097656 234.9375 196.464844 C 235.089844 196.832031 235.304688 197.15625 235.585938 197.4375 C 235.867188 197.71875 236.191406 197.9375 236.558594 198.089844 C 236.925781 198.242188 237.308594 198.316406 237.707031 198.316406 C 238.105469 198.316406 238.488281 198.242188 238.855469 198.089844 C 239.222656 197.9375 239.546875 197.71875 239.828125 197.4375 C 240.109375 197.15625 240.328125 196.832031 240.480469 196.464844 C 240.632812 196.097656 240.707031 195.714844 240.707031 195.316406 Z M 238.25 193.71875 C 236.125 193 235.042969 196.199219 237.167969 196.917969 C 245.035156 199.578125 255.734375 202.167969 266.429688 204.421875 C 286.898438 208.738281 307.355469 211.835938 307.761719 211.898438 C 307.765625 211.898438 307.769531 211.898438 307.769531 211.898438 C 309.984375 212.234375 310.488281 208.898438 308.273438 208.5625 C 308.273438 208.5625 308.269531 208.5625 308.265625 208.5625 C 307.859375 208.5 287.5 205.417969 267.128906 201.121094 C 256.574219 198.894531 246.011719 196.34375 238.25 193.71875 M 311.019531 210.230469 C 311.019531 209.832031 310.945312 209.449219 310.792969 209.082031 C 310.640625 208.714844 310.421875 208.390625 310.140625 208.109375 C 309.859375 207.828125 309.535156 207.613281 309.167969 207.460938 C 308.800781 207.308594 308.417969 207.230469 308.019531 207.230469 C 307.621094 207.230469 307.238281 207.308594 306.871094 207.460938 C 306.503906 207.613281 306.179688 207.828125 305.898438 208.109375 C 305.617188 208.390625 305.402344 208.714844 305.25 209.082031 C 305.097656 209.449219 305.019531 209.832031 305.019531 210.230469 C 305.019531 210.628906 305.097656 211.011719 305.25 211.378906 C 305.402344 211.746094 305.617188 212.070312 305.898438 212.351562 C 306.179688 212.632812 306.503906 212.851562 306.871094 213.003906 C 307.238281 213.15625 307.621094 213.230469 308.019531 213.230469 C 308.417969 213.230469 308.800781 213.15625 309.167969 213.003906 C 309.535156 212.851562 309.859375 212.632812 310.140625 212.351562 C 310.421875 212.070312 310.640625 211.746094 310.792969 211.378906 C 310.945312 211.011719 311.019531 210.628906 311.019531 210.230469 Z M 311.019531 210.230469 " fill-opacity="1" fill-rule="nonzero"/><g clip-path="url(#id22)"><path fill="#ffffff" d="M 29.625 306.089844 C 13.261719 306.089844 0 320.191406 0 337.589844 C 0 354.988281 13.261719 369.089844 29.625 369.089844 C 45.988281 369.089844 59.25 354.988281 59.25 337.589844 C 59.25 320.191406 45.988281 306.089844 29.625 306.089844 " fill-opacity="1" fill-rule="nonzero"/></g><g fill="#000000" fill-opacity="1"><g transform="translate(125.712726, 365.632387)"><g><path d="M 4.59375 0 L 4.59375 -3.4375 C 4.59375 -3.976562 4.476562 -4.367188 4.25 -4.609375 C 4.03125 -4.847656 3.679688 -4.96875 3.203125 -4.96875 C 2.566406 -4.96875 2.101562 -4.804688 1.8125 -4.484375 C 1.519531 -4.171875 1.375 -3.65625 1.375 -2.9375 L 1.375 0 L 0.890625 0 L 0.890625 -5.3125 L 1.296875 -5.3125 L 1.390625 -4.578125 L 1.421875 -4.578125 C 1.765625 -5.128906 2.378906 -5.40625 3.265625 -5.40625 C 4.460938 -5.40625 5.0625 -4.757812 5.0625 -3.46875 L 5.0625 0 Z M 4.59375 0 "/></g></g></g><g fill="#000000" fill-opacity="1"><g transform="translate(131.608859, 365.632387)"><g><path d="M 1.3125 -5.3125 L 1.3125 -1.875 C 1.3125 -1.332031 1.421875 -0.941406 1.640625 -0.703125 C 1.867188 -0.460938 2.21875 -0.34375 2.6875 -0.34375 C 3.320312 -0.34375 3.785156 -0.5 4.078125 -0.8125 C 4.378906 -1.132812 4.53125 -1.65625 4.53125 -2.375 L 4.53125 -5.3125 L 5.015625 -5.3125 L 5.015625 0 L 4.59375 0 L 4.515625 -0.734375 L 4.484375 -0.734375 C 4.140625 -0.179688 3.523438 0.09375 2.640625 0.09375 C 1.429688 0.09375 0.828125 -0.550781 0.828125 -1.84375 L 0.828125 -5.3125 Z M 1.3125 -5.3125 "/></g></g></g><g fill="#000000" fill-opacity="1"><g transform="translate(137.504992, 365.632387)"><g><path d="M 7.515625 0 L 7.515625 -3.484375 C 7.515625 -4.003906 7.414062 -4.378906 7.21875 -4.609375 C 7.019531 -4.847656 6.710938 -4.96875 6.296875 -4.96875 C 5.742188 -4.96875 5.335938 -4.816406 5.078125 -4.515625 C 4.816406 -4.222656 4.6875 -3.753906 4.6875 -3.109375 L 4.6875 0 L 4.203125 0 L 4.203125 -3.625 C 4.203125 -4.519531 3.789062 -4.96875 2.96875 -4.96875 C 2.414062 -4.96875 2.007812 -4.804688 1.75 -4.484375 C 1.5 -4.160156 1.375 -3.644531 1.375 -2.9375 L 1.375 0 L 0.890625 0 L 0.890625 -5.3125 L 1.296875 -5.3125 L 1.390625 -4.578125 L 1.421875 -4.578125 C 1.566406 -4.835938 1.773438 -5.039062 2.046875 -5.1875 C 2.316406 -5.332031 2.613281 -5.40625 2.9375 -5.40625 C 3.769531 -5.40625 4.304688 -5.09375 4.546875 -4.46875 L 4.578125 -4.46875 C 4.742188 -4.769531 4.972656 -5 5.265625 -5.15625 C 5.554688 -5.320312 5.890625 -5.40625 6.265625 -5.40625 C 6.835938 -5.40625 7.269531 -5.25 7.5625 -4.9375 C 7.851562 -4.632812 8 -4.144531 8 -3.46875 L 8 0 Z M 7.515625 0 "/></g></g></g><g fill="#000000" fill-opacity="1"><g transform="translate(146.329668, 365.632387)"><g><path d="M 3.125 -5.40625 C 3.875 -5.40625 4.4375 -5.171875 4.8125 -4.703125 C 5.1875 -4.242188 5.375 -3.5625 5.375 -2.65625 C 5.375 -1.78125 5.175781 -1.101562 4.78125 -0.625 C 4.382812 -0.144531 3.828125 0.09375 3.109375 0.09375 C 2.734375 0.09375 2.394531 0.015625 2.09375 -0.140625 C 1.789062 -0.296875 1.550781 -0.515625 1.375 -0.796875 L 1.328125 -0.796875 L 1.1875 0 L 0.890625 0 L 0.890625 -7.59375 L 1.375 -7.59375 L 1.375 -5.6875 C 1.375 -5.40625 1.367188 -5.140625 1.359375 -4.890625 L 1.34375 -4.484375 L 1.375 -4.484375 C 1.570312 -4.804688 1.8125 -5.039062 2.09375 -5.1875 C 2.382812 -5.332031 2.726562 -5.40625 3.125 -5.40625 Z M 3.125 -4.96875 C 2.5 -4.96875 2.050781 -4.785156 1.78125 -4.421875 C 1.507812 -4.066406 1.375 -3.476562 1.375 -2.65625 L 1.375 -2.578125 C 1.375 -1.773438 1.515625 -1.195312 1.796875 -0.84375 C 2.078125 -0.5 2.515625 -0.328125 3.109375 -0.328125 C 3.691406 -0.328125 4.128906 -0.53125 4.421875 -0.9375 C 4.710938 -1.34375 4.859375 -1.921875 4.859375 -2.671875 C 4.859375 -4.203125 4.28125 -4.96875 3.125 -4.96875 Z M 3.125 -4.96875 "/></g></g></g><g fill="#000000" fill-opacity="1"><g transform="translate(152.279497, 365.632387)"><g><path d="M 3.03125 0.09375 C 2.257812 0.09375 1.65625 -0.140625 1.21875 -0.609375 C 0.789062 -1.085938 0.578125 -1.753906 0.578125 -2.609375 C 0.578125 -3.453125 0.785156 -4.128906 1.203125 -4.640625 C 1.617188 -5.148438 2.179688 -5.40625 2.890625 -5.40625 C 3.515625 -5.40625 4.003906 -5.1875 4.359375 -4.75 C 4.722656 -4.320312 4.90625 -3.734375 4.90625 -2.984375 L 4.90625 -2.59375 L 1.09375 -2.59375 C 1.09375 -1.863281 1.257812 -1.304688 1.59375 -0.921875 C 1.925781 -0.535156 2.40625 -0.34375 3.03125 -0.34375 C 3.332031 -0.34375 3.597656 -0.363281 3.828125 -0.40625 C 4.054688 -0.445312 4.347656 -0.535156 4.703125 -0.671875 L 4.703125 -0.234375 C 4.398438 -0.109375 4.117188 -0.0234375 3.859375 0.015625 C 3.609375 0.0664062 3.332031 0.09375 3.03125 0.09375 Z M 2.890625 -4.984375 C 2.378906 -4.984375 1.96875 -4.8125 1.65625 -4.46875 C 1.351562 -4.132812 1.175781 -3.648438 1.125 -3.015625 L 4.40625 -3.015625 C 4.40625 -3.628906 4.269531 -4.109375 4 -4.453125 C 3.726562 -4.804688 3.359375 -4.984375 2.890625 -4.984375 Z M 2.890625 -4.984375 "/></g></g></g><g fill="#000000" fill-opacity="1"><g transform="translate(157.765634, 365.632387)"><g><path d="M 2.984375 -5.40625 C 3.203125 -5.40625 3.441406 -5.382812 3.703125 -5.34375 L 3.609375 -4.875 C 3.390625 -4.9375 3.160156 -4.96875 2.921875 -4.96875 C 2.460938 -4.96875 2.085938 -4.773438 1.796875 -4.390625 C 1.515625 -4.003906 1.375 -3.519531 1.375 -2.9375 L 1.375 0 L 0.890625 0 L 0.890625 -5.3125 L 1.296875 -5.3125 L 1.34375 -4.34375 L 1.375 -4.34375 C 1.59375 -4.738281 1.828125 -5.015625 2.078125 -5.171875 C 2.328125 -5.328125 2.628906 -5.40625 2.984375 -5.40625 Z M 2.984375 -5.40625 "/></g></g></g><g fill="#000000" fill-opacity="1"><g transform="translate(161.65572, 365.632387)"><g/></g></g><g fill="#000000" fill-opacity="1"><g transform="translate(164.252362, 365.632387)"><g><path d="M 5.28125 -2.65625 C 5.28125 -1.789062 5.066406 -1.113281 4.640625 -0.625 C 4.222656 -0.144531 3.644531 0.09375 2.90625 0.09375 C 2.445312 0.09375 2.035156 -0.015625 1.671875 -0.234375 C 1.316406 -0.460938 1.046875 -0.785156 0.859375 -1.203125 C 0.671875 -1.628906 0.578125 -2.113281 0.578125 -2.65625 C 0.578125 -3.519531 0.785156 -4.191406 1.203125 -4.671875 C 1.628906 -5.160156 2.207031 -5.40625 2.9375 -5.40625 C 3.664062 -5.40625 4.238281 -5.160156 4.65625 -4.671875 C 5.070312 -4.179688 5.28125 -3.507812 5.28125 -2.65625 Z M 1.09375 -2.65625 C 1.09375 -1.925781 1.25 -1.359375 1.5625 -0.953125 C 1.882812 -0.546875 2.34375 -0.34375 2.9375 -0.34375 C 3.519531 -0.34375 3.96875 -0.546875 4.28125 -0.953125 C 4.601562 -1.359375 4.765625 -1.925781 4.765625 -2.65625 C 4.765625 -3.394531 4.601562 -3.960938 4.28125 -4.359375 C 3.957031 -4.765625 3.503906 -4.96875 2.921875 -4.96875 C 2.335938 -4.96875 1.882812 -4.765625 1.5625 -4.359375 C 1.25 -3.960938 1.09375 -3.394531 1.09375 -2.65625 Z M 1.09375 -2.65625 "/></g></g></g><g fill="#000000" fill-opacity="1"><g transform="translate(170.109448, 365.632387)"><g><path d="M 2.859375 -4.890625 L 1.609375 -4.890625 L 1.609375 0 L 1.125 0 L 1.125 -4.890625 L 0.140625 -4.890625 L 0.140625 -5.171875 L 1.125 -5.359375 L 1.125 -5.765625 C 1.125 -6.410156 1.242188 -6.882812 1.484375 -7.1875 C 1.722656 -7.5 2.113281 -7.65625 2.65625 -7.65625 C 2.945312 -7.65625 3.242188 -7.609375 3.546875 -7.515625 L 3.421875 -7.09375 C 3.160156 -7.175781 2.90625 -7.21875 2.65625 -7.21875 C 2.269531 -7.21875 2 -7.101562 1.84375 -6.875 C 1.6875 -6.65625 1.609375 -6.296875 1.609375 -5.796875 L 1.609375 -5.3125 L 2.859375 -5.3125 Z M 2.859375 -4.890625 "/></g></g></g><g fill="#000000" fill-opacity="1"><g transform="translate(173.106323, 365.632387)"><g/></g></g><g fill="#000000" fill-opacity="1"><g transform="translate(175.702965, 365.632387)"><g><path d="M 1.375 0 L 0.890625 0 L 0.890625 -5.3125 L 1.375 -5.3125 Z M 0.828125 -6.78125 C 0.828125 -7.09375 0.925781 -7.25 1.125 -7.25 C 1.226562 -7.25 1.304688 -7.207031 1.359375 -7.125 C 1.421875 -7.039062 1.453125 -6.925781 1.453125 -6.78125 C 1.453125 -6.632812 1.421875 -6.519531 1.359375 -6.4375 C 1.304688 -6.351562 1.226562 -6.3125 1.125 -6.3125 C 0.925781 -6.3125 0.828125 -6.46875 0.828125 -6.78125 Z M 0.828125 -6.78125 "/></g></g></g><g fill="#000000" fill-opacity="1"><g transform="translate(177.962829, 365.632387)"><g><path d="M 4.59375 0 L 4.59375 -3.4375 C 4.59375 -3.976562 4.476562 -4.367188 4.25 -4.609375 C 4.03125 -4.847656 3.679688 -4.96875 3.203125 -4.96875 C 2.566406 -4.96875 2.101562 -4.804688 1.8125 -4.484375 C 1.519531 -4.171875 1.375 -3.65625 1.375 -2.9375 L 1.375 0 L 0.890625 0 L 0.890625 -5.3125 L 1.296875 -5.3125 L 1.390625 -4.578125 L 1.421875 -4.578125 C 1.765625 -5.128906 2.378906 -5.40625 3.265625 -5.40625 C 4.460938 -5.40625 5.0625 -4.757812 5.0625 -3.46875 L 5.0625 0 Z M 4.59375 0 "/></g></g></g><g fill="#000000" fill-opacity="1"><g transform="translate(183.858962, 365.632387)"><g><path d="M 2.828125 -5.40625 C 3.210938 -5.40625 3.546875 -5.332031 3.828125 -5.1875 C 4.109375 -5.050781 4.359375 -4.816406 4.578125 -4.484375 L 4.609375 -4.484375 C 4.585938 -4.890625 4.578125 -5.289062 4.578125 -5.6875 L 4.578125 -7.59375 L 5.0625 -7.59375 L 5.0625 0 L 4.734375 0 L 4.625 -0.8125 L 4.578125 -0.8125 C 4.171875 -0.207031 3.59375 0.09375 2.84375 0.09375 C 2.113281 0.09375 1.550781 -0.128906 1.15625 -0.578125 C 0.769531 -1.035156 0.578125 -1.703125 0.578125 -2.578125 C 0.578125 -3.492188 0.769531 -4.191406 1.15625 -4.671875 C 1.539062 -5.160156 2.097656 -5.40625 2.828125 -5.40625 Z M 2.828125 -4.96875 C 2.253906 -4.96875 1.820312 -4.765625 1.53125 -4.359375 C 1.238281 -3.953125 1.09375 -3.363281 1.09375 -2.59375 C 1.09375 -1.082031 1.675781 -0.328125 2.84375 -0.328125 C 3.4375 -0.328125 3.875 -0.5 4.15625 -0.84375 C 4.4375 -1.195312 4.578125 -1.773438 4.578125 -2.578125 L 4.578125 -2.65625 C 4.578125 -3.476562 4.4375 -4.066406 4.15625 -4.421875 C 3.882812 -4.785156 3.441406 -4.96875 2.828125 -4.96875 Z M 2.828125 -4.96875 "/></g></g></g><g fill="#000000" fill-opacity="1"><g transform="translate(189.808791, 365.632387)"><g><path d="M 3.03125 0.09375 C 2.257812 0.09375 1.65625 -0.140625 1.21875 -0.609375 C 0.789062 -1.085938 0.578125 -1.753906 0.578125 -2.609375 C 0.578125 -3.453125 0.785156 -4.128906 1.203125 -4.640625 C 1.617188 -5.148438 2.179688 -5.40625 2.890625 -5.40625 C 3.515625 -5.40625 4.003906 -5.1875 4.359375 -4.75 C 4.722656 -4.320312 4.90625 -3.734375 4.90625 -2.984375 L 4.90625 -2.59375 L 1.09375 -2.59375 C 1.09375 -1.863281 1.257812 -1.304688 1.59375 -0.921875 C 1.925781 -0.535156 2.40625 -0.34375 3.03125 -0.34375 C 3.332031 -0.34375 3.597656 -0.363281 3.828125 -0.40625 C 4.054688 -0.445312 4.347656 -0.535156 4.703125 -0.671875 L 4.703125 -0.234375 C 4.398438 -0.109375 4.117188 -0.0234375 3.859375 0.015625 C 3.609375 0.0664062 3.332031 0.09375 3.03125 0.09375 Z M 2.890625 -4.984375 C 2.378906 -4.984375 1.96875 -4.8125 1.65625 -4.46875 C 1.351562 -4.132812 1.175781 -3.648438 1.125 -3.015625 L 4.40625 -3.015625 C 4.40625 -3.628906 4.269531 -4.109375 4 -4.453125 C 3.726562 -4.804688 3.359375 -4.984375 2.890625 -4.984375 Z M 2.890625 -4.984375 "/></g></g></g><g fill="#000000" fill-opacity="1"><g transform="translate(195.294928, 365.632387)"><g><path d="M 2.1875 -2.734375 L 0.34375 -5.3125 L 0.90625 -5.3125 L 2.484375 -3.078125 L 4.046875 -5.3125 L 4.578125 -5.3125 L 2.765625 -2.734375 L 4.71875 0 L 4.15625 0 L 2.484375 -2.375 L 0.796875 0 L 0.265625 0 Z M 2.1875 -2.734375 "/></g></g></g><g fill="#000000" fill-opacity="1"><g transform="translate(200.273451, 365.632387)"><g><path d="M 1.375 0 L 0.890625 0 L 0.890625 -5.3125 L 1.375 -5.3125 Z M 0.828125 -6.78125 C 0.828125 -7.09375 0.925781 -7.25 1.125 -7.25 C 1.226562 -7.25 1.304688 -7.207031 1.359375 -7.125 C 1.421875 -7.039062 1.453125 -6.925781 1.453125 -6.78125 C 1.453125 -6.632812 1.421875 -6.519531 1.359375 -6.4375 C 1.304688 -6.351562 1.226562 -6.3125 1.125 -6.3125 C 0.925781 -6.3125 0.828125 -6.46875 0.828125 -6.78125 Z M 0.828125 -6.78125 "/></g></g></g><g fill="#000000" fill-opacity="1"><g transform="translate(202.533316, 365.632387)"><g><path d="M 4.59375 0 L 4.59375 -3.4375 C 4.59375 -3.976562 4.476562 -4.367188 4.25 -4.609375 C 4.03125 -4.847656 3.679688 -4.96875 3.203125 -4.96875 C 2.566406 -4.96875 2.101562 -4.804688 1.8125 -4.484375 C 1.519531 -4.171875 1.375 -3.65625 1.375 -2.9375 L 1.375 0 L 0.890625 0 L 0.890625 -5.3125 L 1.296875 -5.3125 L 1.390625 -4.578125 L 1.421875 -4.578125 C 1.765625 -5.128906 2.378906 -5.40625 3.265625 -5.40625 C 4.460938 -5.40625 5.0625 -4.757812 5.0625 -3.46875 L 5.0625 0 Z M 4.59375 0 "/></g></g></g><g fill="#000000" fill-opacity="1"><g transform="translate(208.429449, 365.632387)"><g><path d="M 5.03125 -5.3125 L 5.03125 -4.96875 L 3.9375 -4.90625 C 4.226562 -4.539062 4.375 -4.140625 4.375 -3.703125 C 4.375 -3.191406 4.203125 -2.773438 3.859375 -2.453125 C 3.515625 -2.140625 3.054688 -1.984375 2.484375 -1.984375 C 2.242188 -1.984375 2.078125 -1.992188 1.984375 -2.015625 C 1.785156 -1.910156 1.632812 -1.789062 1.53125 -1.65625 C 1.4375 -1.519531 1.390625 -1.375 1.390625 -1.21875 C 1.390625 -1.050781 1.453125 -0.925781 1.578125 -0.84375 C 1.710938 -0.769531 1.929688 -0.734375 2.234375 -0.734375 L 3.15625 -0.734375 C 3.738281 -0.734375 4.179688 -0.613281 4.484375 -0.375 C 4.785156 -0.144531 4.9375 0.195312 4.9375 0.65625 C 4.9375 1.207031 4.707031 1.632812 4.25 1.9375 C 3.800781 2.25 3.15625 2.40625 2.3125 2.40625 C 1.644531 2.40625 1.128906 2.273438 0.765625 2.015625 C 0.398438 1.753906 0.21875 1.394531 0.21875 0.9375 C 0.21875 0.570312 0.332031 0.269531 0.5625 0.03125 C 0.789062 -0.207031 1.097656 -0.367188 1.484375 -0.453125 C 1.316406 -0.523438 1.1875 -0.625 1.09375 -0.75 C 1 -0.875 0.953125 -1.019531 0.953125 -1.1875 C 0.953125 -1.539062 1.175781 -1.851562 1.625 -2.125 C 1.320312 -2.25 1.082031 -2.445312 0.90625 -2.71875 C 0.738281 -2.988281 0.65625 -3.300781 0.65625 -3.65625 C 0.65625 -4.1875 0.820312 -4.609375 1.15625 -4.921875 C 1.488281 -5.242188 1.941406 -5.40625 2.515625 -5.40625 C 2.867188 -5.40625 3.140625 -5.375 3.328125 -5.3125 Z M 0.734375 0.90625 C 0.734375 1.632812 1.273438 2 2.359375 2 C 3.753906 2 4.453125 1.550781 4.453125 0.65625 C 4.453125 0.34375 4.34375 0.113281 4.125 -0.03125 C 3.90625 -0.175781 3.550781 -0.25 3.0625 -0.25 L 2.1875 -0.25 C 1.21875 -0.25 0.734375 0.132812 0.734375 0.90625 Z M 1.140625 -3.65625 C 1.140625 -3.238281 1.265625 -2.914062 1.515625 -2.6875 C 1.765625 -2.46875 2.097656 -2.359375 2.515625 -2.359375 C 2.953125 -2.359375 3.285156 -2.46875 3.515625 -2.6875 C 3.753906 -2.914062 3.875 -3.242188 3.875 -3.671875 C 3.875 -4.117188 3.753906 -4.457031 3.515625 -4.6875 C 3.273438 -4.914062 2.9375 -5.03125 2.5 -5.03125 C 2.070312 -5.03125 1.738281 -4.90625 1.5 -4.65625 C 1.257812 -4.414062 1.140625 -4.082031 1.140625 -3.65625 Z M 1.140625 -3.65625 "/></g></g></g><g fill="#000000" fill-opacity="1"><g transform="translate(213.656903, 365.632387)"><g/></g></g><g fill="#000000" fill-opacity="1"><g transform="translate(216.253545, 365.632387)"><g><path d="M 2.296875 -0.328125 C 2.597656 -0.328125 2.863281 -0.351562 3.09375 -0.40625 L 3.09375 -0.015625 C 2.851562 0.0546875 2.582031 0.09375 2.28125 0.09375 C 1.8125 0.09375 1.460938 -0.03125 1.234375 -0.28125 C 1.015625 -0.53125 0.90625 -0.921875 0.90625 -1.453125 L 0.90625 -4.890625 L 0.125 -4.890625 L 0.125 -5.171875 L 0.90625 -5.390625 L 1.15625 -6.59375 L 1.40625 -6.59375 L 1.40625 -5.3125 L 2.953125 -5.3125 L 2.953125 -4.890625 L 1.40625 -4.890625 L 1.40625 -1.53125 C 1.40625 -1.125 1.472656 -0.820312 1.609375 -0.625 C 1.753906 -0.425781 1.984375 -0.328125 2.296875 -0.328125 Z M 2.296875 -0.328125 "/></g></g></g><g fill="#000000" fill-opacity="1"><g transform="translate(219.601846, 365.632387)"><g><path d="M 4.59375 0 L 4.59375 -3.4375 C 4.59375 -3.976562 4.476562 -4.367188 4.25 -4.609375 C 4.03125 -4.847656 3.679688 -4.96875 3.203125 -4.96875 C 2.566406 -4.96875 2.101562 -4.804688 1.8125 -4.484375 C 1.519531 -4.171875 1.375 -3.65625 1.375 -2.9375 L 1.375 0 L 0.890625 0 L 0.890625 -7.59375 L 1.375 -7.59375 L 1.375 -5.1875 L 1.34375 -4.5 L 1.375 -4.5 C 1.582031 -4.820312 1.835938 -5.050781 2.140625 -5.1875 C 2.441406 -5.332031 2.816406 -5.40625 3.265625 -5.40625 C 4.460938 -5.40625 5.0625 -4.757812 5.0625 -3.46875 L 5.0625 0 Z M 4.59375 0 "/></g></g></g><g fill="#000000" fill-opacity="1"><g transform="translate(225.497979, 365.632387)"><g><path d="M 2.984375 -5.40625 C 3.203125 -5.40625 3.441406 -5.382812 3.703125 -5.34375 L 3.609375 -4.875 C 3.390625 -4.9375 3.160156 -4.96875 2.921875 -4.96875 C 2.460938 -4.96875 2.085938 -4.773438 1.796875 -4.390625 C 1.515625 -4.003906 1.375 -3.519531 1.375 -2.9375 L 1.375 0 L 0.890625 0 L 0.890625 -5.3125 L 1.296875 -5.3125 L 1.34375 -4.34375 L 1.375 -4.34375 C 1.59375 -4.738281 1.828125 -5.015625 2.078125 -5.171875 C 2.328125 -5.328125 2.628906 -5.40625 2.984375 -5.40625 Z M 2.984375 -5.40625 "/></g></g></g><g fill="#000000" fill-opacity="1"><g transform="translate(229.388065, 365.632387)"><g><path d="M 3.03125 0.09375 C 2.257812 0.09375 1.65625 -0.140625 1.21875 -0.609375 C 0.789062 -1.085938 0.578125 -1.753906 0.578125 -2.609375 C 0.578125 -3.453125 0.785156 -4.128906 1.203125 -4.640625 C 1.617188 -5.148438 2.179688 -5.40625 2.890625 -5.40625 C 3.515625 -5.40625 4.003906 -5.1875 4.359375 -4.75 C 4.722656 -4.320312 4.90625 -3.734375 4.90625 -2.984375 L 4.90625 -2.59375 L 1.09375 -2.59375 C 1.09375 -1.863281 1.257812 -1.304688 1.59375 -0.921875 C 1.925781 -0.535156 2.40625 -0.34375 3.03125 -0.34375 C 3.332031 -0.34375 3.597656 -0.363281 3.828125 -0.40625 C 4.054688 -0.445312 4.347656 -0.535156 4.703125 -0.671875 L 4.703125 -0.234375 C 4.398438 -0.109375 4.117188 -0.0234375 3.859375 0.015625 C 3.609375 0.0664062 3.332031 0.09375 3.03125 0.09375 Z M 2.890625 -4.984375 C 2.378906 -4.984375 1.96875 -4.8125 1.65625 -4.46875 C 1.351562 -4.132812 1.175781 -3.648438 1.125 -3.015625 L 4.40625 -3.015625 C 4.40625 -3.628906 4.269531 -4.109375 4 -4.453125 C 3.726562 -4.804688 3.359375 -4.984375 2.890625 -4.984375 Z M 2.890625 -4.984375 "/></g></g></g><g fill="#000000" fill-opacity="1"><g transform="translate(234.874202, 365.632387)"><g><path d="M 4.109375 0 L 3.984375 -0.84375 L 3.953125 -0.84375 C 3.679688 -0.5 3.40625 -0.253906 3.125 -0.109375 C 2.84375 0.0234375 2.507812 0.09375 2.125 0.09375 C 1.601562 0.09375 1.195312 -0.0351562 0.90625 -0.296875 C 0.625 -0.566406 0.484375 -0.9375 0.484375 -1.40625 C 0.484375 -1.925781 0.695312 -2.328125 1.125 -2.609375 C 1.550781 -2.898438 2.175781 -3.054688 3 -3.078125 L 4.015625 -3.09375 L 4.015625 -3.453125 C 4.015625 -3.953125 3.910156 -4.332031 3.703125 -4.59375 C 3.492188 -4.851562 3.160156 -4.984375 2.703125 -4.984375 C 2.210938 -4.984375 1.707031 -4.847656 1.1875 -4.578125 L 1 -4.984375 C 1.582031 -5.265625 2.160156 -5.40625 2.734375 -5.40625 C 3.316406 -5.40625 3.75 -5.253906 4.03125 -4.953125 C 4.320312 -4.648438 4.46875 -4.175781 4.46875 -3.53125 L 4.46875 0 Z M 2.15625 -0.34375 C 2.726562 -0.34375 3.175781 -0.503906 3.5 -0.828125 C 3.820312 -1.148438 3.984375 -1.597656 3.984375 -2.171875 L 3.984375 -2.703125 L 3.0625 -2.65625 C 2.3125 -2.625 1.773438 -2.507812 1.453125 -2.3125 C 1.140625 -2.113281 0.984375 -1.804688 0.984375 -1.390625 C 0.984375 -1.054688 1.085938 -0.796875 1.296875 -0.609375 C 1.503906 -0.429688 1.789062 -0.34375 2.15625 -0.34375 Z M 2.15625 -0.34375 "/></g></g></g><g fill="#000000" fill-opacity="1"><g transform="translate(240.16999, 365.632387)"><g><path d="M 2.828125 -5.40625 C 3.210938 -5.40625 3.546875 -5.332031 3.828125 -5.1875 C 4.109375 -5.050781 4.359375 -4.816406 4.578125 -4.484375 L 4.609375 -4.484375 C 4.585938 -4.890625 4.578125 -5.289062 4.578125 -5.6875 L 4.578125 -7.59375 L 5.0625 -7.59375 L 5.0625 0 L 4.734375 0 L 4.625 -0.8125 L 4.578125 -0.8125 C 4.171875 -0.207031 3.59375 0.09375 2.84375 0.09375 C 2.113281 0.09375 1.550781 -0.128906 1.15625 -0.578125 C 0.769531 -1.035156 0.578125 -1.703125 0.578125 -2.578125 C 0.578125 -3.492188 0.769531 -4.191406 1.15625 -4.671875 C 1.539062 -5.160156 2.097656 -5.40625 2.828125 -5.40625 Z M 2.828125 -4.96875 C 2.253906 -4.96875 1.820312 -4.765625 1.53125 -4.359375 C 1.238281 -3.953125 1.09375 -3.363281 1.09375 -2.59375 C 1.09375 -1.082031 1.675781 -0.328125 2.84375 -0.328125 C 3.4375 -0.328125 3.875 -0.5 4.15625 -0.84375 C 4.4375 -1.195312 4.578125 -1.773438 4.578125 -2.578125 L 4.578125 -2.65625 C 4.578125 -3.476562 4.4375 -4.066406 4.15625 -4.421875 C 3.882812 -4.785156 3.441406 -4.96875 2.828125 -4.96875 Z M 2.828125 -4.96875 "/></g></g></g><g fill="#000000" fill-opacity="1"><g transform="translate(246.119819, 365.632387)"><g><path d="M 4.1875 -1.375 C 4.1875 -0.90625 4.003906 -0.539062 3.640625 -0.28125 C 3.273438 -0.03125 2.757812 0.09375 2.09375 0.09375 C 1.382812 0.09375 0.820312 -0.015625 0.40625 -0.234375 L 0.40625 -0.75 C 0.945312 -0.488281 1.507812 -0.359375 2.09375 -0.359375 C 2.625 -0.359375 3.023438 -0.441406 3.296875 -0.609375 C 3.566406 -0.785156 3.703125 -1.019531 3.703125 -1.3125 C 3.703125 -1.570312 3.59375 -1.789062 3.375 -1.96875 C 3.15625 -2.15625 2.800781 -2.335938 2.3125 -2.515625 C 1.78125 -2.710938 1.40625 -2.878906 1.1875 -3.015625 C 0.976562 -3.148438 0.816406 -3.304688 0.703125 -3.484375 C 0.597656 -3.660156 0.546875 -3.875 0.546875 -4.125 C 0.546875 -4.519531 0.710938 -4.832031 1.046875 -5.0625 C 1.378906 -5.289062 1.84375 -5.40625 2.4375 -5.40625 C 3.007812 -5.40625 3.554688 -5.300781 4.078125 -5.09375 L 3.890625 -4.65625 C 3.367188 -4.863281 2.882812 -4.96875 2.4375 -4.96875 C 2.007812 -4.96875 1.664062 -4.894531 1.40625 -4.75 C 1.15625 -4.613281 1.03125 -4.414062 1.03125 -4.15625 C 1.03125 -3.882812 1.128906 -3.664062 1.328125 -3.5 C 1.523438 -3.332031 1.910156 -3.144531 2.484375 -2.9375 C 2.960938 -2.769531 3.3125 -2.613281 3.53125 -2.46875 C 3.75 -2.332031 3.910156 -2.175781 4.015625 -2 C 4.128906 -1.820312 4.1875 -1.613281 4.1875 -1.375 Z M 4.1875 -1.375 "/></g></g></g><g fill="#000000" fill-opacity="1"><g transform="translate(9.503719, 205.108054)"><g><path d="M -0.328125 -2.296875 C -0.328125 -2.597656 -0.351562 -2.863281 -0.40625 -3.09375 L -0.015625 -3.09375 C 0.0546875 -2.851562 0.09375 -2.582031 0.09375 -2.28125 C 0.09375 -1.8125 -0.03125 -1.460938 -0.28125 -1.234375 C -0.53125 -1.015625 -0.921875 -0.90625 -1.453125 -0.90625 L -4.890625 -0.90625 L -4.890625 -0.125 L -5.171875 -0.125 L -5.390625 -0.90625 L -6.59375 -1.15625 L -6.59375 -1.40625 L -5.3125 -1.40625 L -5.3125 -2.953125 L -4.890625 -2.953125 L -4.890625 -1.40625 L -1.53125 -1.40625 C -1.125 -1.40625 -0.820312 -1.472656 -0.625 -1.609375 C -0.425781 -1.753906 -0.328125 -1.984375 -0.328125 -2.296875 Z M -0.328125 -2.296875 "/></g></g></g><g fill="#000000" fill-opacity="1"><g transform="translate(9.503719, 201.759753)"><g><path d="M 0 -1.375 L 0 -0.890625 L -5.3125 -0.890625 L -5.3125 -1.375 Z M -6.78125 -0.828125 C -7.09375 -0.828125 -7.25 -0.925781 -7.25 -1.125 C -7.25 -1.226562 -7.207031 -1.304688 -7.125 -1.359375 C -7.039062 -1.421875 -6.925781 -1.453125 -6.78125 -1.453125 C -6.632812 -1.453125 -6.519531 -1.421875 -6.4375 -1.359375 C -6.351562 -1.304688 -6.3125 -1.226562 -6.3125 -1.125 C -6.3125 -0.925781 -6.46875 -0.828125 -6.78125 -0.828125 Z M -6.78125 -0.828125 "/></g></g></g><g fill="#000000" fill-opacity="1"><g transform="translate(9.503719, 199.499888)"><g><path d="M 0 -7.515625 L -3.484375 -7.515625 C -4.003906 -7.515625 -4.378906 -7.414062 -4.609375 -7.21875 C -4.847656 -7.019531 -4.96875 -6.710938 -4.96875 -6.296875 C -4.96875 -5.742188 -4.816406 -5.335938 -4.515625 -5.078125 C -4.222656 -4.816406 -3.753906 -4.6875 -3.109375 -4.6875 L 0 -4.6875 L 0 -4.203125 L -3.625 -4.203125 C -4.519531 -4.203125 -4.96875 -3.789062 -4.96875 -2.96875 C -4.96875 -2.414062 -4.804688 -2.007812 -4.484375 -1.75 C -4.160156 -1.5 -3.644531 -1.375 -2.9375 -1.375 L 0 -1.375 L 0 -0.890625 L -5.3125 -0.890625 L -5.3125 -1.296875 L -4.578125 -1.390625 L -4.578125 -1.421875 C -4.835938 -1.566406 -5.039062 -1.773438 -5.1875 -2.046875 C -5.332031 -2.316406 -5.40625 -2.613281 -5.40625 -2.9375 C -5.40625 -3.769531 -5.09375 -4.304688 -4.46875 -4.546875 L -4.46875 -4.578125 C -4.769531 -4.742188 -5 -4.972656 -5.15625 -5.265625 C -5.320312 -5.554688 -5.40625 -5.890625 -5.40625 -6.265625 C -5.40625 -6.835938 -5.25 -7.269531 -4.9375 -7.5625 C -4.632812 -7.851562 -4.144531 -8 -3.46875 -8 L 0 -8 Z M 0 -7.515625 "/></g></g></g><g fill="#000000" fill-opacity="1"><g transform="translate(9.503719, 190.675212)"><g><path d="M 0.09375 -3.03125 C 0.09375 -2.257812 -0.140625 -1.65625 -0.609375 -1.21875 C -1.085938 -0.789062 -1.753906 -0.578125 -2.609375 -0.578125 C -3.453125 -0.578125 -4.128906 -0.785156 -4.640625 -1.203125 C -5.148438 -1.617188 -5.40625 -2.179688 -5.40625 -2.890625 C -5.40625 -3.515625 -5.1875 -4.003906 -4.75 -4.359375 C -4.320312 -4.722656 -3.734375 -4.90625 -2.984375 -4.90625 L -2.59375 -4.90625 L -2.59375 -1.09375 C -1.863281 -1.09375 -1.304688 -1.257812 -0.921875 -1.59375 C -0.535156 -1.925781 -0.34375 -2.40625 -0.34375 -3.03125 C -0.34375 -3.332031 -0.363281 -3.597656 -0.40625 -3.828125 C -0.445312 -4.054688 -0.535156 -4.347656 -0.671875 -4.703125 L -0.234375 -4.703125 C -0.109375 -4.398438 -0.0234375 -4.117188 0.015625 -3.859375 C 0.0664062 -3.609375 0.09375 -3.332031 0.09375 -3.03125 Z M -4.984375 -2.890625 C -4.984375 -2.378906 -4.8125 -1.96875 -4.46875 -1.65625 C -4.132812 -1.351562 -3.648438 -1.175781 -3.015625 -1.125 L -3.015625 -4.40625 C -3.628906 -4.40625 -4.109375 -4.269531 -4.453125 -4 C -4.804688 -3.726562 -4.984375 -3.359375 -4.984375 -2.890625 Z M -4.984375 -2.890625 "/></g></g></g><g fill="#000000" fill-opacity="1"><g transform="translate(9.503719, 185.189075)"><g><path d="M -1.15625 -1.4375 L -1.0625 -1.5 C -0.195312 -1.257812 0.585938 -0.976562 1.296875 -0.65625 L 1.296875 -0.328125 C 0.398438 -0.578125 -0.414062 -0.757812 -1.15625 -0.875 Z M -1.15625 -1.4375 "/></g></g></g><g fill="#000000" fill-opacity="1"><g transform="translate(9.503719, 183.041477)"><g/></g></g><g fill="#000000" fill-opacity="1"><g transform="translate(9.503719, 180.444836)"><g><path d="M -5.3125 -1.3125 L -1.875 -1.3125 C -1.332031 -1.3125 -0.941406 -1.421875 -0.703125 -1.640625 C -0.460938 -1.867188 -0.34375 -2.21875 -0.34375 -2.6875 C -0.34375 -3.320312 -0.5 -3.785156 -0.8125 -4.078125 C -1.132812 -4.378906 -1.65625 -4.53125 -2.375 -4.53125 L -5.3125 -4.53125 L -5.3125 -5.015625 L 0 -5.015625 L 0 -4.59375 L -0.734375 -4.515625 L -0.734375 -4.484375 C -0.179688 -4.140625 0.09375 -3.523438 0.09375 -2.640625 C 0.09375 -1.429688 -0.550781 -0.828125 -1.84375 -0.828125 L -5.3125 -0.828125 Z M -5.3125 -1.3125 "/></g></g></g><g fill="#000000" fill-opacity="1"><g transform="translate(9.503719, 174.548703)"><g><path d="M -1.375 -4.1875 C -0.90625 -4.1875 -0.539062 -4.003906 -0.28125 -3.640625 C -0.03125 -3.273438 0.09375 -2.757812 0.09375 -2.09375 C 0.09375 -1.382812 -0.015625 -0.820312 -0.234375 -0.40625 L -0.75 -0.40625 C -0.488281 -0.945312 -0.359375 -1.507812 -0.359375 -2.09375 C -0.359375 -2.625 -0.441406 -3.023438 -0.609375 -3.296875 C -0.785156 -3.566406 -1.019531 -3.703125 -1.3125 -3.703125 C -1.570312 -3.703125 -1.789062 -3.59375 -1.96875 -3.375 C -2.15625 -3.15625 -2.335938 -2.800781 -2.515625 -2.3125 C -2.710938 -1.78125 -2.878906 -1.40625 -3.015625 -1.1875 C -3.148438 -0.976562 -3.304688 -0.816406 -3.484375 -0.703125 C -3.660156 -0.597656 -3.875 -0.546875 -4.125 -0.546875 C -4.519531 -0.546875 -4.832031 -0.710938 -5.0625 -1.046875 C -5.289062 -1.378906 -5.40625 -1.84375 -5.40625 -2.4375 C -5.40625 -3.007812 -5.300781 -3.554688 -5.09375 -4.078125 L -4.65625 -3.890625 C -4.863281 -3.367188 -4.96875 -2.882812 -4.96875 -2.4375 C -4.96875 -2.007812 -4.894531 -1.664062 -4.75 -1.40625 C -4.613281 -1.15625 -4.414062 -1.03125 -4.15625 -1.03125 C -3.882812 -1.03125 -3.664062 -1.128906 -3.5 -1.328125 C -3.332031 -1.523438 -3.144531 -1.910156 -2.9375 -2.484375 C -2.769531 -2.960938 -2.613281 -3.3125 -2.46875 -3.53125 C -2.332031 -3.75 -2.175781 -3.910156 -2 -4.015625 C -1.820312 -4.128906 -1.613281 -4.1875 -1.375 -4.1875 Z M -1.375 -4.1875 "/></g></g></g><g fill="#5e17eb" fill-opacity="1"><g transform="translate(66.687712, 116.691518)"><g><path d="M 5.828125 0 L 4.328125 0 L 4.328125 -3.1875 C 4.328125 -3.582031 4.253906 -3.878906 4.109375 -4.078125 C 3.972656 -4.273438 3.753906 -4.375 3.453125 -4.375 C 3.035156 -4.375 2.734375 -4.234375 2.546875 -3.953125 C 2.359375 -3.671875 2.265625 -3.207031 2.265625 -2.5625 L 2.265625 0 L 0.78125 0 L 0.78125 -5.453125 L 1.921875 -5.453125 L 2.125 -4.765625 L 2.203125 -4.765625 C 2.367188 -5.023438 2.597656 -5.222656 2.890625 -5.359375 C 3.179688 -5.492188 3.507812 -5.5625 3.875 -5.5625 C 4.507812 -5.5625 4.992188 -5.390625 5.328125 -5.046875 C 5.660156 -4.703125 5.828125 -4.207031 5.828125 -3.5625 Z M 5.828125 0 "/></g></g></g><g fill="#5e17eb" fill-opacity="1"><g transform="translate(73.25741, 116.691518)"><g><path d="M 0.4375 -3.9375 L 0.4375 -5 L 5.28125 -5 L 5.28125 -3.9375 Z M 0.4375 -2.046875 L 0.4375 -3.109375 L 5.28125 -3.109375 L 5.28125 -2.046875 Z M 0.4375 -2.046875 "/></g></g></g><g fill="#5e17eb" fill-opacity="1"><g transform="translate(78.963193, 116.691518)"><g><path d="M 5.109375 -5.546875 C 5.109375 -5.097656 4.972656 -4.71875 4.703125 -4.40625 C 4.429688 -4.09375 4.050781 -3.878906 3.5625 -3.765625 L 3.5625 -3.734375 C 4.144531 -3.660156 4.582031 -3.484375 4.875 -3.203125 C 5.175781 -2.921875 5.328125 -2.546875 5.328125 -2.078125 C 5.328125 -1.390625 5.078125 -0.851562 4.578125 -0.46875 C 4.078125 -0.09375 3.363281 0.09375 2.4375 0.09375 C 1.664062 0.09375 0.976562 -0.03125 0.375 -0.28125 L 0.375 -1.578125 C 0.65625 -1.429688 0.960938 -1.3125 1.296875 -1.21875 C 1.628906 -1.132812 1.957031 -1.09375 2.28125 -1.09375 C 2.78125 -1.09375 3.144531 -1.175781 3.375 -1.34375 C 3.613281 -1.519531 3.734375 -1.796875 3.734375 -2.171875 C 3.734375 -2.503906 3.597656 -2.738281 3.328125 -2.875 C 3.054688 -3.019531 2.617188 -3.09375 2.015625 -3.09375 L 1.484375 -3.09375 L 1.484375 -4.25 L 2.03125 -4.25 C 2.582031 -4.25 2.984375 -4.320312 3.234375 -4.46875 C 3.492188 -4.613281 3.625 -4.859375 3.625 -5.203125 C 3.625 -5.742188 3.285156 -6.015625 2.609375 -6.015625 C 2.378906 -6.015625 2.140625 -5.972656 1.890625 -5.890625 C 1.648438 -5.816406 1.382812 -5.6875 1.09375 -5.5 L 0.390625 -6.53125 C 1.046875 -7 1.820312 -7.234375 2.71875 -7.234375 C 3.457031 -7.234375 4.039062 -7.082031 4.46875 -6.78125 C 4.894531 -6.488281 5.109375 -6.078125 5.109375 -5.546875 Z M 5.109375 -5.546875 "/></g></g></g><g fill="#ff5757" fill-opacity="1"><g transform="translate(66.684064, 51.63916)"><g><path d="M 5.828125 0 L 4.328125 0 L 4.328125 -3.1875 C 4.328125 -3.582031 4.253906 -3.878906 4.109375 -4.078125 C 3.972656 -4.273438 3.753906 -4.375 3.453125 -4.375 C 3.035156 -4.375 2.734375 -4.234375 2.546875 -3.953125 C 2.359375 -3.671875 2.265625 -3.207031 2.265625 -2.5625 L 2.265625 0 L 0.78125 0 L 0.78125 -5.453125 L 1.921875 -5.453125 L 2.125 -4.765625 L 2.203125 -4.765625 C 2.367188 -5.023438 2.597656 -5.222656 2.890625 -5.359375 C 3.179688 -5.492188 3.507812 -5.5625 3.875 -5.5625 C 4.507812 -5.5625 4.992188 -5.390625 5.328125 -5.046875 C 5.660156 -4.703125 5.828125 -4.207031 5.828125 -3.5625 Z M 5.828125 0 "/></g></g></g><g fill="#ff5757" fill-opacity="1"><g transform="translate(73.253762, 51.63916)"><g><path d="M 0.4375 -3.9375 L 0.4375 -5 L 5.28125 -5 L 5.28125 -3.9375 Z M 0.4375 -2.046875 L 0.4375 -3.109375 L 5.28125 -3.109375 L 5.28125 -2.046875 Z M 0.4375 -2.046875 "/></g></g></g><g fill="#ff5757" fill-opacity="1"><g transform="translate(78.959546, 51.63916)"><g><path d="M 5.390625 0 L 0.40625 0 L 0.40625 -1.046875 L 2.1875 -2.859375 C 2.71875 -3.398438 3.066406 -3.773438 3.234375 -3.984375 C 3.398438 -4.203125 3.515625 -4.398438 3.578125 -4.578125 C 3.648438 -4.753906 3.6875 -4.9375 3.6875 -5.125 C 3.6875 -5.414062 3.609375 -5.628906 3.453125 -5.765625 C 3.296875 -5.910156 3.085938 -5.984375 2.828125 -5.984375 C 2.546875 -5.984375 2.273438 -5.914062 2.015625 -5.78125 C 1.753906 -5.65625 1.484375 -5.476562 1.203125 -5.25 L 0.375 -6.21875 C 0.726562 -6.519531 1.019531 -6.734375 1.25 -6.859375 C 1.488281 -6.984375 1.742188 -7.078125 2.015625 -7.140625 C 2.285156 -7.203125 2.59375 -7.234375 2.9375 -7.234375 C 3.375 -7.234375 3.765625 -7.148438 4.109375 -6.984375 C 4.453125 -6.828125 4.71875 -6.601562 4.90625 -6.3125 C 5.09375 -6.019531 5.1875 -5.6875 5.1875 -5.3125 C 5.1875 -4.976562 5.128906 -4.664062 5.015625 -4.375 C 4.898438 -4.09375 4.71875 -3.800781 4.46875 -3.5 C 4.226562 -3.195312 3.804688 -2.765625 3.203125 -2.203125 L 2.28125 -1.34375 L 2.28125 -1.265625 L 5.390625 -1.265625 Z M 5.390625 0 "/></g></g></g><g fill="#ffbd59" fill-opacity="1"><g transform="translate(66.684064, 88.754313)"><g><path d="M 5.828125 0 L 4.328125 0 L 4.328125 -3.1875 C 4.328125 -3.582031 4.253906 -3.878906 4.109375 -4.078125 C 3.972656 -4.273438 3.753906 -4.375 3.453125 -4.375 C 3.035156 -4.375 2.734375 -4.234375 2.546875 -3.953125 C 2.359375 -3.671875 2.265625 -3.207031 2.265625 -2.5625 L 2.265625 0 L 0.78125 0 L 0.78125 -5.453125 L 1.921875 -5.453125 L 2.125 -4.765625 L 2.203125 -4.765625 C 2.367188 -5.023438 2.597656 -5.222656 2.890625 -5.359375 C 3.179688 -5.492188 3.507812 -5.5625 3.875 -5.5625 C 4.507812 -5.5625 4.992188 -5.390625 5.328125 -5.046875 C 5.660156 -4.703125 5.828125 -4.207031 5.828125 -3.5625 Z M 5.828125 0 "/></g></g></g><g fill="#ffbd59" fill-opacity="1"><g transform="translate(73.253762, 88.754313)"><g><path d="M 0.4375 -3.9375 L 0.4375 -5 L 5.28125 -5 L 5.28125 -3.9375 Z M 0.4375 -2.046875 L 0.4375 -3.109375 L 5.28125 -3.109375 L 5.28125 -2.046875 Z M 0.4375 -2.046875 "/></g></g></g><g fill="#ffbd59" fill-opacity="1"><g transform="translate(78.959546, 88.754313)"><g><path d="M 5.546875 -1.484375 L 4.6875 -1.484375 L 4.6875 0 L 3.21875 0 L 3.21875 -1.484375 L 0.171875 -1.484375 L 0.171875 -2.53125 L 3.296875 -7.140625 L 4.6875 -7.140625 L 4.6875 -2.65625 L 5.546875 -2.65625 Z M 3.21875 -2.65625 L 3.21875 -3.859375 C 3.21875 -4.066406 3.222656 -4.359375 3.234375 -4.734375 C 3.253906 -5.117188 3.269531 -5.34375 3.28125 -5.40625 L 3.25 -5.40625 C 3.125 -5.144531 2.976562 -4.882812 2.8125 -4.625 L 1.5 -2.65625 Z M 3.21875 -2.65625 "/></g></g></g><g fill="#62006e" fill-opacity="1"><g transform="translate(66.684064, 68.905483)"><g><path d="M 5.828125 0 L 4.328125 0 L 4.328125 -3.1875 C 4.328125 -3.582031 4.253906 -3.878906 4.109375 -4.078125 C 3.972656 -4.273438 3.753906 -4.375 3.453125 -4.375 C 3.035156 -4.375 2.734375 -4.234375 2.546875 -3.953125 C 2.359375 -3.671875 2.265625 -3.207031 2.265625 -2.5625 L 2.265625 0 L 0.78125 0 L 0.78125 -5.453125 L 1.921875 -5.453125 L 2.125 -4.765625 L 2.203125 -4.765625 C 2.367188 -5.023438 2.597656 -5.222656 2.890625 -5.359375 C 3.179688 -5.492188 3.507812 -5.5625 3.875 -5.5625 C 4.507812 -5.5625 4.992188 -5.390625 5.328125 -5.046875 C 5.660156 -4.703125 5.828125 -4.207031 5.828125 -3.5625 Z M 5.828125 0 "/></g></g></g><g fill="#62006e" fill-opacity="1"><g transform="translate(73.253762, 68.905483)"><g><path d="M 0.4375 -3.9375 L 0.4375 -5 L 5.28125 -5 L 5.28125 -3.9375 Z M 0.4375 -2.046875 L 0.4375 -3.109375 L 5.28125 -3.109375 L 5.28125 -2.046875 Z M 0.4375 -2.046875 "/></g></g></g><g fill="#62006e" fill-opacity="1"><g transform="translate(78.959546, 68.905483)"><g><path d="M 3 -4.5625 C 3.6875 -4.5625 4.234375 -4.367188 4.640625 -3.984375 C 5.054688 -3.597656 5.265625 -3.066406 5.265625 -2.390625 C 5.265625 -1.585938 5.015625 -0.972656 4.515625 -0.546875 C 4.023438 -0.117188 3.320312 0.09375 2.40625 0.09375 C 1.613281 0.09375 0.972656 -0.03125 0.484375 -0.28125 L 0.484375 -1.59375 C 0.742188 -1.457031 1.046875 -1.34375 1.390625 -1.25 C 1.734375 -1.164062 2.054688 -1.125 2.359375 -1.125 C 3.273438 -1.125 3.734375 -1.503906 3.734375 -2.265625 C 3.734375 -2.984375 3.257812 -3.34375 2.3125 -3.34375 C 2.132812 -3.34375 1.941406 -3.320312 1.734375 -3.28125 C 1.523438 -3.25 1.359375 -3.210938 1.234375 -3.171875 L 0.625 -3.5 L 0.90625 -7.140625 L 4.765625 -7.140625 L 4.765625 -5.859375 L 2.21875 -5.859375 L 2.09375 -4.453125 L 2.265625 -4.5 C 2.460938 -4.539062 2.707031 -4.5625 3 -4.5625 Z M 3 -4.5625 "/></g></g></g></svg>